<svg width="70" height="72" viewBox="0 0 70 72" fill="none" xmlns="http://www.w3.org/2000/svg">
<path d="M21.842 63V54.2727H24.8931C25.5011 54.2727 26.0025 54.3778 26.3974 54.5881C26.7923 54.7955 27.0863 55.0753 27.2795 55.4276C27.4727 55.777 27.5692 56.1648 27.5692 56.5909C27.5692 56.9659 27.5025 57.2756 27.369 57.5199C27.2383 57.7642 27.065 57.9574 26.8491 58.0994C26.636 58.2415 26.4045 58.3466 26.1545 58.4148V58.5C26.4215 58.517 26.69 58.6108 26.9599 58.7812C27.2298 58.9517 27.4556 59.196 27.6374 59.5142C27.8192 59.8324 27.9102 60.2216 27.9102 60.6818C27.9102 61.1193 27.8107 61.5128 27.6119 61.8622C27.413 62.2116 27.0991 62.4886 26.6701 62.6932C26.2411 62.8977 25.6829 63 24.9954 63H21.842ZM22.8988 62.0625H24.9954C25.6857 62.0625 26.1758 61.929 26.4656 61.6619C26.7582 61.392 26.9045 61.0653 26.9045 60.6818C26.9045 60.3864 26.8292 60.1136 26.6786 59.8636C26.5281 59.6108 26.3136 59.4091 26.0352 59.2585C25.7567 59.1051 25.4272 59.0284 25.0465 59.0284H22.8988V62.0625ZM22.8988 58.108H24.859C25.1772 58.108 25.4641 58.0455 25.7198 57.9205C25.9783 57.7955 26.1829 57.6193 26.3335 57.392C26.4869 57.1648 26.5636 56.8977 26.5636 56.5909C26.5636 56.2074 26.43 55.8821 26.163 55.6151C25.896 55.3452 25.4727 55.2102 24.8931 55.2102H22.8988V58.108ZM29.6467 63V54.2727H32.5955C33.2802 54.2727 33.8398 54.3963 34.2745 54.6435C34.712 54.8878 35.0359 55.2188 35.2461 55.6364C35.4563 56.054 35.5614 56.5199 35.5614 57.0341C35.5614 57.5483 35.4563 58.0156 35.2461 58.4361C35.0387 58.8565 34.7177 59.1918 34.283 59.4418C33.8484 59.6889 33.2915 59.8125 32.6126 59.8125H30.4989V58.875H32.5785C33.0472 58.875 33.4237 58.794 33.7077 58.6321C33.9918 58.4702 34.1978 58.2514 34.3256 57.9759C34.4563 57.6974 34.5217 57.3835 34.5217 57.0341C34.5217 56.6847 34.4563 56.3722 34.3256 56.0966C34.1978 55.821 33.9904 55.6051 33.7035 55.4489C33.4165 55.2898 33.0359 55.2102 32.5614 55.2102H30.7035V63H29.6467ZM39.4446 54.2727H40.5014V60.5114C40.5014 61.0682 40.3991 61.5412 40.1946 61.9304C39.9901 62.3196 39.7017 62.6151 39.3295 62.8168C38.9574 63.0185 38.5185 63.1193 38.0128 63.1193C37.5355 63.1193 37.1108 63.0327 36.7386 62.8594C36.3665 62.6832 36.0739 62.4332 35.8608 62.1094C35.6477 61.7855 35.5412 61.4006 35.5412 60.9545H36.581C36.581 61.2017 36.642 61.4176 36.7642 61.6023C36.8892 61.7841 37.0597 61.9261 37.2756 62.0284C37.4915 62.1307 37.7372 62.1818 38.0128 62.1818C38.3168 62.1818 38.5753 62.1179 38.7884 61.9901C39.0014 61.8622 39.1634 61.6747 39.2741 61.4276C39.3878 61.1776 39.4446 60.8722 39.4446 60.5114V54.2727ZM47.392 56.4545C47.3409 56.0227 47.1335 55.6875 46.7699 55.4489C46.4063 55.2102 45.9602 55.0909 45.4318 55.0909C45.0455 55.0909 44.7074 55.1534 44.4176 55.2784C44.1307 55.4034 43.9063 55.5753 43.7443 55.794C43.5852 56.0128 43.5057 56.2614 43.5057 56.5398C43.5057 56.7727 43.5611 56.973 43.6719 57.1406C43.7855 57.3054 43.9304 57.4432 44.1065 57.554C44.2827 57.6619 44.4673 57.7514 44.6605 57.8224C44.8537 57.8906 45.0312 57.946 45.1932 57.9886L46.0795 58.2273C46.3068 58.2869 46.5597 58.3693 46.8381 58.4744C47.1193 58.5795 47.3878 58.723 47.6435 58.9048C47.902 59.0838 48.1151 59.3139 48.2827 59.5952C48.4503 59.8764 48.5341 60.2216 48.5341 60.6307C48.5341 61.1023 48.4105 61.5284 48.1634 61.9091C47.919 62.2898 47.5611 62.5923 47.0895 62.8168C46.6207 63.0412 46.0511 63.1534 45.3807 63.1534C44.7557 63.1534 44.2145 63.0526 43.7571 62.8509C43.3026 62.6491 42.9446 62.3679 42.6832 62.0071C42.4247 61.6463 42.2784 61.2273 42.2443 60.75H43.3352C43.3636 61.0795 43.4744 61.3523 43.6676 61.5682C43.8636 61.7812 44.1108 61.9403 44.4091 62.0455C44.7102 62.1477 45.0341 62.1989 45.3807 62.1989C45.7841 62.1989 46.1463 62.1335 46.4673 62.0028C46.7884 61.8693 47.0426 61.6847 47.2301 61.4489C47.4176 61.2102 47.5114 60.9318 47.5114 60.6136C47.5114 60.3239 47.4304 60.0881 47.2685 59.9062C47.1065 59.7244 46.8935 59.5767 46.6293 59.4631C46.3651 59.3494 46.0795 59.25 45.7727 59.1648L44.6989 58.858C44.017 58.6619 43.4773 58.3821 43.0795 58.0185C42.6818 57.6548 42.483 57.179 42.483 56.5909C42.483 56.1023 42.6151 55.6761 42.8793 55.3125C43.1463 54.946 43.5043 54.6619 43.9531 54.4602C44.4048 54.2557 44.9091 54.1534 45.4659 54.1534C46.0284 54.1534 46.5284 54.2543 46.9659 54.456C47.4034 54.6548 47.75 54.9276 48.0057 55.2741C48.2642 55.6207 48.4006 56.0142 48.4148 56.4545H47.392Z" fill="black"/>
<rect x="6" y="6" width="58" height="43" fill="#FBFBFC"/>
<path d="M25.5963 43.303H19.6956C19.3115 43.303 19 42.9915 19 42.6075V29.0097C19 28.6256 19.3115 28.3141 19.6956 28.3141H25.5961C25.9804 28.3141 26.2916 28.6256 26.2916 29.0097L26.2919 42.6075C26.2919 42.9918 25.9804 43.3033 25.5963 43.3033L25.5963 43.303Z" fill="#D9D9D9"/>
<path d="M49.9708 37.7995L43.8491 40.9994C42.6108 41.6394 41.2335 41.9803 39.8352 41.9803H29.4566C28.8513 41.9803 28.2532 41.8968 27.6826 41.7367L27.6829 30.9612C29.248 31.3368 30.208 32.1369 30.375 32.2274C31.8217 33.1527 33.4914 32.9859 35.1955 32.9859H37.7139C39.1748 32.9859 40.3573 34.1892 40.3573 35.6709V36.0397C39.4113 36.4014 37.5123 36.7282 33.7699 36.4502C33.3732 36.4223 33.0534 36.7074 33.0255 37.0902C32.9979 37.4728 33.2829 37.8067 33.6656 37.8346C34.6395 37.9042 35.5299 37.9457 36.3436 37.9457C39.1888 37.9457 41.1089 37.5143 42.0618 36.6518C42.2843 36.5892 42.4862 36.5266 42.6669 36.464L48.079 34.4813C49.0388 33.9806 50.2425 34.3214 50.7641 35.2327C51.2791 36.1579 50.9242 37.2986 49.9712 37.7994L49.9708 37.7995Z" fill="#D9D9D9"/>
<path d="M49.1918 22.4396L40.8789 31.622C40.7467 31.768 40.5589 31.8515 40.3573 31.8515C40.1627 31.8515 39.9749 31.768 39.8424 31.622L31.5228 22.4396C30.0411 20.8051 29.6376 18.5023 30.4793 16.4294C31.2794 14.4329 33.0044 13.1599 35.0914 13.0138C35.2375 13.0068 35.3836 13 35.5366 13C37.408 13 39.1471 13.814 40.3572 15.2052C41.5676 13.814 43.3067 13 45.1849 13C45.3312 13 45.4772 13.007 45.6301 13.0138C47.7171 13.1599 49.4421 14.4329 50.242 16.4294C51.0771 18.5023 50.6807 20.805 49.192 22.4396H49.1918Z" fill="#D9D9D9"/>
<rect x="0.5" y="0.5" width="69" height="71" rx="7.5" stroke="#E3E4E8"/>
</svg>
