<svg width="70" height="72" viewBox="0 0 70 72" fill="none" xmlns="http://www.w3.org/2000/svg">
<path d="M14.9652 54.2727V63H13.9084V54.2727H14.9652ZM17.9535 59.0625V63H16.9478V56.4545H17.9194V57.4773H18.0046C18.158 57.1449 18.391 56.8778 18.7035 56.6761C19.016 56.4716 19.4194 56.3693 19.9137 56.3693C20.3569 56.3693 20.7447 56.4602 21.0771 56.642C21.4094 56.821 21.668 57.0938 21.8526 57.4602C22.0373 57.8239 22.1296 58.2841 22.1296 58.8409V63H21.1239V58.9091C21.1239 58.3949 20.9904 57.9943 20.7234 57.7074C20.4563 57.4176 20.0898 57.2727 19.6239 57.2727C19.3029 57.2727 19.016 57.3423 18.7631 57.4815C18.5131 57.6207 18.3157 57.8239 18.1708 58.0909C18.0259 58.358 17.9535 58.6818 17.9535 59.0625ZM26.8139 56.4545V57.3068H23.4219V56.4545H26.8139ZM24.4105 54.8864H25.4162V61.125C25.4162 61.4091 25.4574 61.6222 25.5398 61.7642C25.625 61.9034 25.733 61.9972 25.8636 62.0455C25.9972 62.0909 26.1378 62.1136 26.2855 62.1136C26.3963 62.1136 26.4872 62.108 26.5582 62.0966C26.6293 62.0824 26.6861 62.071 26.7287 62.0625L26.9332 62.9659C26.8651 62.9915 26.7699 63.017 26.6477 63.0426C26.5256 63.071 26.3707 63.0852 26.1832 63.0852C25.8991 63.0852 25.6207 63.0241 25.348 62.902C25.0781 62.7798 24.8537 62.5938 24.6747 62.3438C24.4986 62.0938 24.4105 61.7784 24.4105 61.3977V54.8864ZM31.0007 63.1364C30.37 63.1364 29.826 62.9972 29.3686 62.7188C28.9141 62.4375 28.5632 62.0455 28.3161 61.5426C28.0717 61.0369 27.9496 60.4489 27.9496 59.7784C27.9496 59.108 28.0717 58.517 28.3161 58.0057C28.5632 57.4915 28.907 57.0909 29.3473 56.804C29.7905 56.5142 30.3075 56.3693 30.8984 56.3693C31.2393 56.3693 31.576 56.4261 31.9084 56.5398C32.2408 56.6534 32.5433 56.8381 32.8161 57.0938C33.0888 57.3466 33.3061 57.6818 33.468 58.0994C33.63 58.517 33.7109 59.0312 33.7109 59.642V60.0682H28.6655V59.1989H32.6882C32.6882 58.8295 32.6143 58.5 32.4666 58.2102C32.3217 57.9205 32.1143 57.6918 31.8445 57.5241C31.5774 57.3565 31.2621 57.2727 30.8984 57.2727C30.4979 57.2727 30.1513 57.3722 29.8587 57.571C29.5689 57.767 29.3459 58.0227 29.1896 58.3381C29.0334 58.6534 28.9553 58.9915 28.9553 59.3523V59.9318C28.9553 60.4261 29.0405 60.8452 29.2109 61.1889C29.3842 61.5298 29.6243 61.7898 29.9311 61.9688C30.2379 62.1449 30.5945 62.233 31.0007 62.233C31.2649 62.233 31.5036 62.196 31.7166 62.1222C31.9325 62.0455 32.1186 61.9318 32.2749 61.7812C32.4311 61.6278 32.5518 61.4375 32.6371 61.2102L33.6087 61.483C33.5064 61.8125 33.3345 62.1023 33.093 62.3523C32.8516 62.5994 32.5533 62.7926 32.1982 62.9318C31.843 63.0682 31.4439 63.1364 31.0007 63.1364ZM35.2408 63V56.4545H36.2124V57.4432H36.2805C36.3999 57.1193 36.6158 56.8565 36.9283 56.6548C37.2408 56.4531 37.593 56.3523 37.9851 56.3523C38.0589 56.3523 38.1513 56.3537 38.2621 56.3565C38.3729 56.3594 38.4567 56.3636 38.5135 56.3693V57.392C38.4794 57.3835 38.4013 57.3707 38.2791 57.3537C38.1598 57.3338 38.0334 57.3239 37.8999 57.3239C37.5817 57.3239 37.2976 57.3906 37.0476 57.5241C36.8004 57.6548 36.6044 57.8366 36.4595 58.0696C36.3175 58.2997 36.2464 58.5625 36.2464 58.858V63H35.2408ZM40.7113 59.0625V63H39.7056V56.4545H40.6772V57.4773H40.7624C40.9158 57.1449 41.1488 56.8778 41.4613 56.6761C41.7738 56.4716 42.1772 56.3693 42.6715 56.3693C43.1147 56.3693 43.5025 56.4602 43.8349 56.642C44.1673 56.821 44.4258 57.0938 44.6104 57.4602C44.7951 57.8239 44.8874 58.2841 44.8874 58.8409V63H43.8817V58.9091C43.8817 58.3949 43.7482 57.9943 43.4812 57.7074C43.2141 57.4176 42.8477 57.2727 42.3817 57.2727C42.0607 57.2727 41.7738 57.3423 41.521 57.4815C41.271 57.6207 41.0735 57.8239 40.9286 58.0909C40.7837 58.358 40.7113 58.6818 40.7113 59.0625ZM49.4695 63.1364C48.8388 63.1364 48.2947 62.9972 47.8374 62.7188C47.3828 62.4375 47.032 62.0455 46.7848 61.5426C46.5405 61.0369 46.4183 60.4489 46.4183 59.7784C46.4183 59.108 46.5405 58.517 46.7848 58.0057C47.032 57.4915 47.3757 57.0909 47.8161 56.804C48.2592 56.5142 48.7763 56.3693 49.3672 56.3693C49.7081 56.3693 50.0447 56.4261 50.3771 56.5398C50.7095 56.6534 51.0121 56.8381 51.2848 57.0938C51.5575 57.3466 51.7749 57.6818 51.9368 58.0994C52.0987 58.517 52.1797 59.0312 52.1797 59.642V60.0682H47.1342V59.1989H51.157C51.157 58.8295 51.0831 58.5 50.9354 58.2102C50.7905 57.9205 50.5831 57.6918 50.3132 57.5241C50.0462 57.3565 49.7308 57.2727 49.3672 57.2727C48.9666 57.2727 48.62 57.3722 48.3274 57.571C48.0376 57.767 47.8146 58.0227 47.6584 58.3381C47.5021 58.6534 47.424 58.9915 47.424 59.3523V59.9318C47.424 60.4261 47.5092 60.8452 47.6797 61.1889C47.853 61.5298 48.093 61.7898 48.3999 61.9688C48.7067 62.1449 49.0632 62.233 49.4695 62.233C49.7337 62.233 49.9723 62.196 50.1854 62.1222C50.4013 62.0455 50.5874 61.9318 50.7436 61.7812C50.8999 61.6278 51.0206 61.4375 51.1058 61.2102L52.0774 61.483C51.9751 61.8125 51.8033 62.1023 51.5618 62.3523C51.3203 62.5994 51.022 62.7926 50.6669 62.9318C50.3118 63.0682 49.9126 63.1364 49.4695 63.1364ZM56.5561 56.4545V57.3068H53.1641V56.4545H56.5561ZM54.1527 54.8864H55.1584V61.125C55.1584 61.4091 55.1996 61.6222 55.282 61.7642C55.3672 61.9034 55.4751 61.9972 55.6058 62.0455C55.7393 62.0909 55.88 62.1136 56.0277 62.1136C56.1385 62.1136 56.2294 62.108 56.3004 62.0966C56.3714 62.0824 56.4283 62.071 56.4709 62.0625L56.6754 62.9659C56.6072 62.9915 56.5121 63.017 56.3899 63.0426C56.2678 63.071 56.1129 63.0852 55.9254 63.0852C55.6413 63.0852 55.3629 63.0241 55.0902 62.902C54.8203 62.7798 54.5959 62.5938 54.4169 62.3438C54.2408 62.0938 54.1527 61.7784 54.1527 61.3977V54.8864Z" fill="black"/>
<rect x="6" y="6" width="58" height="43" fill="#FBFBFC"/>
<path d="M42.3148 16.9784C41.873 16.9534 41.4179 17.0914 41.0784 17.4003C40.5247 17.9029 40.4615 18.6963 40.9328 19.2651C42.1973 20.7945 42.8292 22.6229 42.8292 24.4489C42.8292 26.275 42.1973 28.1034 40.9328 29.6327C40.4631 30.2016 40.5247 30.995 41.0784 31.4976C41.7575 32.1139 42.8962 32.0554 43.4738 31.3569C46.8421 27.28 46.8421 21.6179 43.4738 17.5409C43.185 17.1924 42.7567 17.0034 42.3148 16.9784ZM37.4869 21.144C37.125 21.1737 36.7687 21.3121 36.4891 21.5659C36.0337 21.9792 35.8501 22.6225 36.142 23.1438C36.3673 23.5442 36.486 23.9867 36.486 24.4489C36.486 24.9112 36.3657 25.3537 36.142 25.754C35.8485 26.2753 36.0321 26.9186 36.4891 27.332C37.2348 28.0088 38.5326 27.8682 39.0022 27.0113C39.4322 26.225 39.6592 25.3533 39.6592 24.4489C39.6592 23.5445 39.4322 22.6743 39.0022 21.8866C38.7077 21.351 38.0901 21.0946 37.4869 21.144Z" fill="#D9D9D9"/>
<path d="M40.2308 35.3695C36.2599 35.5638 32.2773 35.5638 28.3065 35.3695C28.024 35.3576 27.7567 35.2395 27.5579 35.039C27.3589 34.8387 27.2436 34.5708 27.2347 34.2893C27.1292 27.9209 27.1656 21.5486 27.3442 15.1723C27.3644 14.893 27.481 14.6291 27.674 14.4256C27.8673 14.2222 28.1251 14.0913 28.404 14.0555C32.3083 13.7643 36.2295 13.7643 40.1335 14.0555C40.4086 14.0905 40.6634 14.2175 40.8562 14.4161C41.0487 14.6147 41.1678 14.8729 41.1933 15.148C42.2287 15.233 43.2518 15.33 44.2871 15.4514L44.214 13.9949C44.1487 13.1007 43.7822 12.2549 43.1742 11.5941C42.5666 10.933 41.7525 10.496 40.8643 10.3535C36.4717 9.87418 32.0393 9.88231 27.6481 10.3779C26.7606 10.5223 25.948 10.9601 25.3406 11.6206C24.7329 12.2809 24.3659 13.1257 24.2984 14.0192C23.8925 22.6774 23.9007 31.3446 24.3229 40.0187C24.3944 40.9041 24.7601 41.7408 25.3624 42.3959C25.9646 43.051 26.7691 43.4872 27.6481 43.6357C32.0317 44.1214 36.4557 44.1214 40.8392 43.6357C41.7275 43.4931 42.5415 43.0561 43.1494 42.3953C43.7574 41.7345 44.1236 40.8883 44.1889 39.9943C44.2742 38.3801 44.3351 36.7533 44.3838 35.1391C44.4083 35.1754 40.5956 35.3819 40.2302 35.3697L40.2308 35.3695ZM36.8203 39.6056C36.8238 39.7549 36.7659 39.8987 36.6599 40.0041C36.5541 40.1095 36.4097 40.1675 36.2602 40.164H32.277C31.9676 40.164 31.7167 39.9142 31.7167 39.6056V39.1444C31.7232 38.8388 31.9703 38.5925 32.277 38.586H36.2602C36.5696 38.586 36.8203 38.8361 36.8203 39.1444V39.6056Z" fill="#D9D9D9"/>
<rect x="0.5" y="0.5" width="69" height="71" rx="7.5" stroke="#E3E4E8"/>
</svg>
