<svg width="70" height="72" viewBox="0 0 70 72" fill="none" xmlns="http://www.w3.org/2000/svg">
<path d="M14.3537 63V54.2727H15.4105V62.0625H19.4673V63H14.3537ZM22.8935 63.1534C22.4787 63.1534 22.1023 63.0753 21.7642 62.919C21.4261 62.7599 21.1577 62.5312 20.9588 62.233C20.7599 61.9318 20.6605 61.5682 20.6605 61.142C20.6605 60.767 20.7344 60.4631 20.8821 60.2301C21.0298 59.9943 21.2273 59.8097 21.4744 59.6761C21.7216 59.5426 21.9943 59.4432 22.2926 59.3778C22.5938 59.3097 22.8963 59.2557 23.2003 59.2159C23.598 59.1648 23.9205 59.1264 24.1676 59.1009C24.4176 59.0724 24.5994 59.0256 24.7131 58.9602C24.8295 58.8949 24.8878 58.7812 24.8878 58.6193V58.5852C24.8878 58.1648 24.7727 57.8381 24.5426 57.6051C24.3153 57.3722 23.9702 57.2557 23.5071 57.2557C23.027 57.2557 22.6506 57.3608 22.3778 57.571C22.1051 57.7812 21.9134 58.0057 21.8026 58.2443L20.848 57.9034C21.0185 57.5057 21.2457 57.196 21.5298 56.9744C21.8168 56.75 22.1293 56.5937 22.4673 56.5057C22.8082 56.4148 23.1435 56.3693 23.473 56.3693C23.6832 56.3693 23.9247 56.3949 24.1974 56.446C24.473 56.4943 24.7386 56.5952 24.9943 56.7486C25.2528 56.902 25.4673 57.1335 25.6378 57.4432C25.8082 57.7528 25.8935 58.1676 25.8935 58.6875V63H24.8878V62.1136H24.8366C24.7685 62.2557 24.6548 62.4077 24.4957 62.5696C24.3366 62.7315 24.125 62.8693 23.8608 62.983C23.5966 63.0966 23.2741 63.1534 22.8935 63.1534ZM23.0469 62.25C23.4446 62.25 23.7798 62.1719 24.0526 62.0156C24.3281 61.8594 24.5355 61.6577 24.6747 61.4105C24.8168 61.1634 24.8878 60.9034 24.8878 60.6307V59.7102C24.8452 59.7614 24.7514 59.8082 24.6065 59.8509C24.4645 59.8906 24.2997 59.9261 24.1122 59.9574C23.9276 59.9858 23.7472 60.0114 23.571 60.0341C23.3977 60.054 23.2571 60.071 23.1491 60.0852C22.8878 60.1193 22.6435 60.1747 22.4162 60.2514C22.1918 60.3253 22.0099 60.4375 21.8707 60.5881C21.7344 60.7358 21.6662 60.9375 21.6662 61.1932C21.6662 61.5426 21.7955 61.8068 22.054 61.9858C22.3153 62.1619 22.6463 62.25 23.0469 62.25ZM27.729 63V56.4545H28.7347V63H27.729ZM28.2404 55.3636C28.0444 55.3636 27.8754 55.2969 27.7333 55.1634C27.5941 55.0298 27.5245 54.8693 27.5245 54.6818C27.5245 54.4943 27.5941 54.3338 27.7333 54.2003C27.8754 54.0668 28.0444 54 28.2404 54C28.4364 54 28.604 54.0668 28.7433 54.2003C28.8853 54.3338 28.9563 54.4943 28.9563 54.6818C28.9563 54.8693 28.8853 55.0298 28.7433 55.1634C28.604 55.2969 28.4364 55.3636 28.2404 55.3636ZM31.5824 59.0625V63H30.5767V56.4545H31.5483V57.4773H31.6335C31.7869 57.1449 32.0199 56.8778 32.3324 56.6761C32.6449 56.4716 33.0483 56.3693 33.5426 56.3693C33.9858 56.3693 34.3736 56.4602 34.706 56.642C35.0384 56.821 35.2969 57.0938 35.4815 57.4602C35.6662 57.8239 35.7585 58.2841 35.7585 58.8409V63H34.7528V58.9091C34.7528 58.3949 34.6193 57.9943 34.3523 57.7074C34.0852 57.4176 33.7188 57.2727 33.2528 57.2727C32.9318 57.2727 32.6449 57.3423 32.392 57.4815C32.142 57.6207 31.9446 57.8239 31.7997 58.0909C31.6548 58.358 31.5824 58.6818 31.5824 59.0625ZM38.6019 59.0625V63H37.5962V56.4545H38.5678V57.4773H38.6531C38.8065 57.1449 39.0394 56.8778 39.3519 56.6761C39.6644 56.4716 40.0678 56.3693 40.5621 56.3693C41.0053 56.3693 41.3931 56.4602 41.7255 56.642C42.0579 56.821 42.3164 57.0938 42.5011 57.4602C42.6857 57.8239 42.7781 58.2841 42.7781 58.8409V63H41.7724V58.9091C41.7724 58.3949 41.6388 57.9943 41.3718 57.7074C41.1048 57.4176 40.7383 57.2727 40.2724 57.2727C39.9513 57.2727 39.6644 57.3423 39.4116 57.4815C39.1616 57.6207 38.9641 57.8239 38.8192 58.0909C38.6744 58.358 38.6019 58.6818 38.6019 59.0625ZM45.0291 65.4545C44.8587 65.4545 44.7067 65.4403 44.5732 65.4119C44.4396 65.3864 44.3473 65.3608 44.2962 65.3352L44.5518 64.4489C44.7962 64.5114 45.0121 64.5341 45.1996 64.517C45.3871 64.5 45.5533 64.4162 45.6982 64.2656C45.8459 64.1179 45.9808 63.8778 46.103 63.5455L46.2905 63.0341L43.87 56.4545H44.9609L46.7678 61.6705H46.8359L48.6428 56.4545H49.7337L46.9553 63.9545C46.8303 64.2926 46.6754 64.5724 46.4908 64.794C46.3061 65.0185 46.0916 65.1847 45.8473 65.2926C45.6058 65.4006 45.3331 65.4545 45.0291 65.4545ZM52.788 63.1534C52.3732 63.1534 51.9968 63.0753 51.6587 62.919C51.3207 62.7599 51.0522 62.5312 50.8533 62.233C50.6545 61.9318 50.555 61.5682 50.555 61.142C50.555 60.767 50.6289 60.4631 50.7766 60.2301C50.9244 59.9943 51.1218 59.8097 51.369 59.6761C51.6161 59.5426 51.8888 59.4432 52.1871 59.3778C52.4883 59.3097 52.7908 59.2557 53.0948 59.2159C53.4925 59.1648 53.815 59.1264 54.0621 59.1009C54.3121 59.0724 54.494 59.0256 54.6076 58.9602C54.7241 58.8949 54.7823 58.7812 54.7823 58.6193V58.5852C54.7823 58.1648 54.6673 57.8381 54.4371 57.6051C54.2099 57.3722 53.8647 57.2557 53.4016 57.2557C52.9215 57.2557 52.5451 57.3608 52.2724 57.571C51.9996 57.7812 51.8079 58.0057 51.6971 58.2443L50.7425 57.9034C50.913 57.5057 51.1403 57.196 51.4244 56.9744C51.7113 56.75 52.0238 56.5937 52.3619 56.5057C52.7028 56.4148 53.038 56.3693 53.3675 56.3693C53.5778 56.3693 53.8192 56.3949 54.092 56.446C54.3675 56.4943 54.6332 56.5952 54.8888 56.7486C55.1474 56.902 55.3619 57.1335 55.5323 57.4432C55.7028 57.7528 55.788 58.1676 55.788 58.6875V63H54.7823V62.1136H54.7312C54.663 62.2557 54.5494 62.4077 54.3903 62.5696C54.2312 62.7315 54.0195 62.8693 53.7553 62.983C53.4911 63.0966 53.1687 63.1534 52.788 63.1534ZM52.9414 62.25C53.3391 62.25 53.6744 62.1719 53.9471 62.0156C54.2227 61.8594 54.43 61.6577 54.5692 61.4105C54.7113 61.1634 54.7823 60.9034 54.7823 60.6307V59.7102C54.7397 59.7614 54.646 59.8082 54.5011 59.8509C54.359 59.8906 54.1942 59.9261 54.0067 59.9574C53.8221 59.9858 53.6417 60.0114 53.4656 60.0341C53.2923 60.054 53.1516 60.071 53.0437 60.0852C52.7823 60.1193 52.538 60.1747 52.3107 60.2514C52.0863 60.3253 51.9045 60.4375 51.7653 60.5881C51.6289 60.7358 51.5607 60.9375 51.5607 61.1932C51.5607 61.5426 51.69 61.8068 51.9485 61.9858C52.2099 62.1619 52.5408 62.25 52.9414 62.25Z" fill="black"/>
<rect x="6" y="6" width="58" height="43" fill="#FBFBFC"/>
<path d="M24.5 12.5C22.8425 12.5 21.5 13.8425 21.5 15.5C21.5 17.1575 22.8425 18.5 24.5 18.5C26.1575 18.5 27.5 17.1575 27.5 15.5C27.5 13.8425 26.1575 12.5 24.5 12.5ZM35 12.5C33.3425 12.5 32 13.8425 32 15.5C32 17.1575 33.3425 18.5 35 18.5C36.6575 18.5 38 17.1575 38 15.5C38 13.8425 36.6575 12.5 35 12.5ZM45.5 12.5C43.8425 12.5 42.5 13.8425 42.5 15.5C42.5 17.1575 43.8425 18.5 45.5 18.5C47.1575 18.5 48.5 17.1575 48.5 15.5C48.5 13.8425 47.1575 12.5 45.5 12.5ZM24.5 23C22.8425 23 21.5 24.3425 21.5 26C21.5 27.6575 22.8425 29 24.5 29C26.1575 29 27.5 27.6575 27.5 26C27.5 24.3425 26.1575 23 24.5 23ZM35 23C33.3425 23 32 24.3425 32 26C32 27.6575 33.3425 29 35 29C36.6575 29 38 27.6575 38 26C38 24.3425 36.6575 23 35 23ZM45.5 23C43.8425 23 42.5 24.3425 42.5 26C42.5 27.6575 43.8425 29 45.5 29C47.1575 29 48.5 27.6575 48.5 26C48.5 24.3425 47.1575 23 45.5 23ZM24.5 33.5C22.8425 33.5 21.5 34.8425 21.5 36.5C21.5 38.1575 22.8425 39.5 24.5 39.5C26.1575 39.5 27.5 38.1575 27.5 36.5C27.5 34.8425 26.1575 33.5 24.5 33.5ZM35 33.5C33.3425 33.5 32 34.8425 32 36.5C32 38.1575 33.3425 39.5 35 39.5C36.6575 39.5 38 38.1575 38 36.5C38 34.8425 36.6575 33.5 35 33.5ZM45.5 33.5C43.8425 33.5 42.5 34.8425 42.5 36.5C42.5 38.1575 43.8425 39.5 45.5 39.5C47.1575 39.5 48.5 38.1575 48.5 36.5C48.5 34.8425 47.1575 33.5 45.5 33.5Z" fill="#D9D9D9"/>
<rect x="0.5" y="0.5" width="69" height="71" rx="7.5" stroke="#E3E4E8"/>
</svg>
