<svg width="70" height="72" viewBox="0 0 70 72" fill="none" xmlns="http://www.w3.org/2000/svg">
<path d="M12.7248 63V54.2727H17.9918V55.2102H13.7816V58.1591H17.7191V59.0966H13.7816V62.0625H18.06V63H12.7248ZM23.5103 58.1676V59.1051H19.6921V58.1676H23.5103ZM26.392 63L24.0057 54.2727H25.0795L26.9034 61.3807H26.9886L28.8466 54.2727H30.0398L31.8977 61.3807H31.983L33.8068 54.2727H34.8807L32.4943 63H31.4034L29.4773 56.0455H29.4091L27.483 63H26.392ZM37.3778 63.1534C36.9631 63.1534 36.5866 63.0753 36.2486 62.919C35.9105 62.7599 35.642 62.5312 35.4432 62.233C35.2443 61.9318 35.1449 61.5682 35.1449 61.142C35.1449 60.767 35.2188 60.4631 35.3665 60.2301C35.5142 59.9943 35.7116 59.8097 35.9588 59.6761C36.206 59.5426 36.4787 59.4432 36.777 59.3778C37.0781 59.3097 37.3807 59.2557 37.6847 59.2159C38.0824 59.1648 38.4048 59.1264 38.652 59.1009C38.902 59.0724 39.0838 59.0256 39.1974 58.9602C39.3139 58.8949 39.3722 58.7812 39.3722 58.6193V58.5852C39.3722 58.1648 39.2571 57.8381 39.027 57.6051C38.7997 57.3722 38.4545 57.2557 37.9915 57.2557C37.5114 57.2557 37.1349 57.3608 36.8622 57.571C36.5895 57.7812 36.3977 58.0057 36.2869 58.2443L35.3324 57.9034C35.5028 57.5057 35.7301 57.196 36.0142 56.9744C36.3011 56.75 36.6136 56.5937 36.9517 56.5057C37.2926 56.4148 37.6278 56.3693 37.9574 56.3693C38.1676 56.3693 38.4091 56.3949 38.6818 56.446C38.9574 56.4943 39.223 56.5952 39.4787 56.7486C39.7372 56.902 39.9517 57.1335 40.1222 57.4432C40.2926 57.7528 40.3778 58.1676 40.3778 58.6875V63H39.3722V62.1136H39.321C39.2528 62.2557 39.1392 62.4077 38.9801 62.5696C38.821 62.7315 38.6094 62.8693 38.3452 62.983C38.081 63.0966 37.7585 63.1534 37.3778 63.1534ZM37.5312 62.25C37.929 62.25 38.2642 62.1719 38.5369 62.0156C38.8125 61.8594 39.0199 61.6577 39.1591 61.4105C39.3011 61.1634 39.3722 60.9034 39.3722 60.6307V59.7102C39.3295 59.7614 39.2358 59.8082 39.0909 59.8509C38.9489 59.8906 38.7841 59.9261 38.5966 59.9574C38.4119 59.9858 38.2315 60.0114 38.0554 60.0341C37.8821 60.054 37.7415 60.071 37.6335 60.0852C37.3722 60.1193 37.1278 60.1747 36.9006 60.2514C36.6761 60.3253 36.4943 60.4375 36.3551 60.5881C36.2188 60.7358 36.1506 60.9375 36.1506 61.1932C36.1506 61.5426 36.2798 61.8068 36.5384 61.9858C36.7997 62.1619 37.1307 62.25 37.5312 62.25ZM43.2191 54.2727V63H42.2134V54.2727H43.2191ZM46.0668 54.2727V63H45.0611V54.2727H46.0668ZM50.6531 63.1364C50.0224 63.1364 49.4783 62.9972 49.021 62.7188C48.5664 62.4375 48.2156 62.0455 47.9684 61.5426C47.7241 61.0369 47.6019 60.4489 47.6019 59.7784C47.6019 59.108 47.7241 58.517 47.9684 58.0057C48.2156 57.4915 48.5593 57.0909 48.9996 56.804C49.4428 56.5142 49.9599 56.3693 50.5508 56.3693C50.8917 56.3693 51.2283 56.4261 51.5607 56.5398C51.8931 56.6534 52.1957 56.8381 52.4684 57.0938C52.7411 57.3466 52.9585 57.6818 53.1204 58.0994C53.2823 58.517 53.3633 59.0312 53.3633 59.642V60.0682H48.3178V59.1989H52.3406C52.3406 58.8295 52.2667 58.5 52.119 58.2102C51.9741 57.9205 51.7667 57.6918 51.4968 57.5241C51.2298 57.3565 50.9144 57.2727 50.5508 57.2727C50.1502 57.2727 49.8036 57.3722 49.511 57.571C49.2212 57.767 48.9982 58.0227 48.842 58.3381C48.6857 58.6534 48.6076 58.9915 48.6076 59.3523V59.9318C48.6076 60.4261 48.6928 60.8452 48.8633 61.1889C49.0366 61.5298 49.2766 61.7898 49.5835 61.9688C49.8903 62.1449 50.2468 62.233 50.6531 62.233C50.9173 62.233 51.1559 62.196 51.369 62.1222C51.5849 62.0455 51.771 61.9318 51.9272 61.7812C52.0835 61.6278 52.2042 61.4375 52.2894 61.2102L53.261 61.483C53.1587 61.8125 52.9869 62.1023 52.7454 62.3523C52.5039 62.5994 52.2056 62.7926 51.8505 62.9318C51.4954 63.0682 51.0962 63.1364 50.6531 63.1364ZM57.7397 56.4545V57.3068H54.3477V56.4545H57.7397ZM55.3363 54.8864H56.342V61.125C56.342 61.4091 56.3832 61.6222 56.4656 61.7642C56.5508 61.9034 56.6587 61.9972 56.7894 62.0455C56.9229 62.0909 57.0636 62.1136 57.2113 62.1136C57.3221 62.1136 57.413 62.108 57.484 62.0966C57.555 62.0824 57.6119 62.071 57.6545 62.0625L57.859 62.9659C57.7908 62.9915 57.6957 63.017 57.5735 63.0426C57.4513 63.071 57.2965 63.0852 57.109 63.0852C56.8249 63.0852 56.5465 63.0241 56.2738 62.902C56.0039 62.7798 55.7795 62.5938 55.6005 62.3438C55.4244 62.0938 55.3363 61.7784 55.3363 61.3977V54.8864Z" fill="black"/>
<rect x="6" y="6" width="58" height="43" fill="#FBFBFC"/>
<path d="M41.4198 11.0001C41.2726 10.9976 41.1305 11.0529 41.0254 11.1532C40.9204 11.2535 40.8611 11.3907 40.8611 11.5336C40.8611 11.6768 40.9204 11.8138 41.0254 11.914C41.1305 12.0145 41.2726 12.0696 41.4198 12.0674C46.6624 12.0674 50.9006 16.1823 50.9006 21.2726H50.9009C50.8983 21.4156 50.9553 21.5538 51.0586 21.6555C51.1618 21.7575 51.3029 21.8151 51.4504 21.8151C51.5976 21.8151 51.739 21.7575 51.8422 21.6555C51.9455 21.5538 52.0025 21.4156 51.9999 21.2726C51.9999 15.6057 47.2565 11.0001 41.4199 11.0001L41.4198 11.0001ZM20.4952 11.0299C19.7065 11.0299 19.0714 11.65 19.0711 12.421L19.0683 21.0722V21.1035H33.7829C34.5716 21.1035 35.207 21.7244 35.207 22.4952V31.5346C35.207 32.3056 34.5716 32.9262 33.7829 32.9262H19.0683V33.0637L19.0711 41.6089C19.0714 42.3799 19.7065 43 20.4952 43H50.5754C51.3642 43 51.9996 42.3799 51.9996 41.6089V22.363H41.6361C40.888 22.363 40.2858 21.7739 40.2856 21.0429L40.2713 11.0296H20.4957L20.4952 11.0299ZM41.4375 13.6236V13.6238C41.2903 13.6213 41.1481 13.6767 41.0431 13.7769C40.9381 13.8772 40.879 14.0144 40.879 14.1574C40.879 14.3006 40.9381 14.4375 41.0431 14.5378C41.1482 14.6381 41.2903 14.6934 41.4375 14.6909C45.1877 14.6909 48.216 17.6313 48.216 21.2724C48.2137 21.4154 48.2705 21.5533 48.3737 21.6553C48.4772 21.7573 48.6183 21.8149 48.7655 21.8149C48.913 21.8149 49.0541 21.7573 49.1576 21.6553C49.2609 21.5533 49.3176 21.4154 49.3153 21.2724C49.3153 17.0545 45.7818 13.6236 41.4375 13.6236L41.4375 13.6236ZM41.4554 16.2029C41.3081 16.2007 41.166 16.2558 41.061 16.3563C40.9559 16.4566 40.8969 16.5936 40.8969 16.7367C40.8969 16.8797 40.9559 17.0167 41.061 17.1172C41.166 17.2174 41.3081 17.2725 41.4554 17.2703C43.7385 17.2703 45.5775 19.0557 45.5775 21.2725C45.5752 21.4155 45.6319 21.5535 45.7354 21.6555C45.8387 21.7574 45.9798 21.815 46.1272 21.815C46.2744 21.815 46.4158 21.7574 46.519 21.6555C46.6223 21.5535 46.6793 21.4155 46.6767 21.2725C46.6767 18.479 44.3325 16.2029 41.4554 16.2029ZM42.4588 18.7654C41.6144 18.7654 40.9158 19.4434 40.9158 20.2635C40.9158 21.0834 41.6141 21.7617 42.4588 21.7617C43.3032 21.7617 44.0026 21.0837 44.0026 20.2635C44.0026 19.4436 43.3035 18.7654 42.4588 18.7654ZM42.4588 20.0181C42.6058 20.0181 42.7113 20.1206 42.7113 20.2633C42.7113 20.406 42.6058 20.5085 42.4588 20.5085C42.3118 20.5085 42.2068 20.406 42.2068 20.2633C42.2068 20.1206 42.3118 20.0181 42.4588 20.0181ZM18.3125 21.8336C17.5853 21.8336 17 22.3773 17 23.0531V30.9763C17 31.652 17.5853 32.1957 18.3125 32.1957H33.12C33.8471 32.1957 34.4324 31.652 34.4324 30.9763V23.0531C34.4324 22.3773 33.8471 21.8336 33.12 21.8336H18.3125ZM28.7721 24.9125H29.8134C30.2665 24.9125 30.6313 25.2642 30.6313 25.7012V28.3291C30.6313 28.7661 30.2663 29.117 29.8134 29.117H28.7721C28.319 29.117 27.9548 28.7661 27.9548 28.3291V25.7012C27.9548 25.2642 28.319 24.9125 28.7721 24.9125Z" fill="#D9D9D9"/>
<rect x="0.5" y="0.5" width="69" height="71" rx="7.5" stroke="#E3E4E8"/>
</svg>
