<svg width="70" height="72" viewBox="0 0 70 72" fill="none" xmlns="http://www.w3.org/2000/svg">
<path d="M14.5034 55.2102V54.2727H21.0488V55.2102H18.3045V63H17.2477V55.2102H14.5034ZM25.7779 60.3239V56.4545H26.7836V63H25.7779V61.892H25.7097C25.5563 62.2244 25.3176 62.5071 24.9938 62.7401C24.6699 62.9702 24.2608 63.0852 23.7665 63.0852C23.3574 63.0852 22.9938 62.9957 22.6756 62.8168C22.3574 62.6349 22.1074 62.3622 21.9256 61.9986C21.7438 61.6321 21.6529 61.1705 21.6529 60.6136V56.4545H22.6586V60.5455C22.6586 61.0227 22.7921 61.4034 23.0591 61.6875C23.329 61.9716 23.6728 62.1136 24.0904 62.1136C24.3404 62.1136 24.5946 62.0497 24.8532 61.9219C25.1145 61.794 25.3333 61.598 25.5094 61.3338C25.6884 61.0696 25.7779 60.733 25.7779 60.3239ZM31.4721 56.4545V57.3068H28.0801V56.4545H31.4721ZM29.0687 54.8864H30.0744V61.125C30.0744 61.4091 30.1156 61.6222 30.198 61.7642C30.2832 61.9034 30.3912 61.9972 30.5218 62.0455C30.6554 62.0909 30.796 62.1136 30.9437 62.1136C31.0545 62.1136 31.1454 62.108 31.2164 62.0966C31.2875 62.0824 31.3443 62.071 31.3869 62.0625L31.5914 62.9659C31.5233 62.9915 31.4281 63.017 31.3059 63.0426C31.1838 63.071 31.0289 63.0852 30.8414 63.0852C30.5574 63.0852 30.2789 63.0241 30.0062 62.902C29.7363 62.7798 29.5119 62.5938 29.3329 62.3438C29.1568 62.0938 29.0687 61.7784 29.0687 61.3977V54.8864ZM35.5737 63.1364C34.9828 63.1364 34.4643 62.9957 34.0183 62.7145C33.5751 62.4332 33.2285 62.0398 32.9785 61.5341C32.7314 61.0284 32.6078 60.4375 32.6078 59.7614C32.6078 59.0795 32.7314 58.4844 32.9785 57.9759C33.2285 57.4673 33.5751 57.0724 34.0183 56.7912C34.4643 56.5099 34.9828 56.3693 35.5737 56.3693C36.1646 56.3693 36.6816 56.5099 37.1248 56.7912C37.5708 57.0724 37.9174 57.4673 38.1646 57.9759C38.4146 58.4844 38.5396 59.0795 38.5396 59.7614C38.5396 60.4375 38.4146 61.0284 38.1646 61.5341C37.9174 62.0398 37.5708 62.4332 37.1248 62.7145C36.6816 62.9957 36.1646 63.1364 35.5737 63.1364ZM35.5737 62.233C36.0225 62.233 36.3919 62.1179 36.6816 61.8878C36.9714 61.6577 37.1859 61.3551 37.3251 60.9801C37.4643 60.6051 37.5339 60.1989 37.5339 59.7614C37.5339 59.3239 37.4643 58.9162 37.3251 58.5384C37.1859 58.1605 36.9714 57.8551 36.6816 57.6222C36.3919 57.3892 36.0225 57.2727 35.5737 57.2727C35.1248 57.2727 34.7555 57.3892 34.4657 57.6222C34.176 57.8551 33.9615 58.1605 33.8223 58.5384C33.6831 58.9162 33.6135 59.3239 33.6135 59.7614C33.6135 60.1989 33.6831 60.6051 33.8223 60.9801C33.9615 61.3551 34.176 61.6577 34.4657 61.8878C34.7555 62.1179 35.1248 62.233 35.5737 62.233ZM40.0748 63V56.4545H41.0463V57.4432H41.1145C41.2338 57.1193 41.4498 56.8565 41.7623 56.6548C42.0748 56.4531 42.427 56.3523 42.8191 56.3523C42.8929 56.3523 42.9853 56.3537 43.0961 56.3565C43.2069 56.3594 43.2907 56.3636 43.3475 56.3693V57.392C43.3134 57.3835 43.2353 57.3707 43.1131 57.3537C42.9938 57.3338 42.8674 57.3239 42.7338 57.3239C42.4157 57.3239 42.1316 57.3906 41.8816 57.5241C41.6344 57.6548 41.4384 57.8366 41.2935 58.0696C41.1515 58.2997 41.0804 58.5625 41.0804 58.858V63H40.0748ZM44.5396 63V56.4545H45.5453V63H44.5396ZM45.051 55.3636C44.8549 55.3636 44.6859 55.2969 44.5439 55.1634C44.4047 55.0298 44.335 54.8693 44.335 54.6818C44.335 54.4943 44.4047 54.3338 44.5439 54.2003C44.6859 54.0668 44.8549 54 45.051 54C45.247 54 45.4146 54.0668 45.5538 54.2003C45.6958 54.3338 45.7669 54.4943 45.7669 54.6818C45.7669 54.8693 45.6958 55.0298 45.5538 55.1634C45.4146 55.2969 45.247 55.3636 45.051 55.3636ZM49.3134 63.1534C48.8986 63.1534 48.5222 63.0753 48.1841 62.919C47.8461 62.7599 47.5776 62.5312 47.3787 62.233C47.1799 61.9318 47.0804 61.5682 47.0804 61.142C47.0804 60.767 47.1543 60.4631 47.302 60.2301C47.4498 59.9943 47.6472 59.8097 47.8944 59.6761C48.1415 59.5426 48.4142 59.4432 48.7125 59.3778C49.0137 59.3097 49.3162 59.2557 49.6202 59.2159C50.0179 59.1648 50.3404 59.1264 50.5875 59.1009C50.8375 59.0724 51.0194 59.0256 51.133 58.9602C51.2495 58.8949 51.3077 58.7812 51.3077 58.6193V58.5852C51.3077 58.1648 51.1926 57.8381 50.9625 57.6051C50.7353 57.3722 50.3901 57.2557 49.927 57.2557C49.4469 57.2557 49.0705 57.3608 48.7978 57.571C48.525 57.7812 48.3333 58.0057 48.2225 58.2443L47.2679 57.9034C47.4384 57.5057 47.6657 57.196 47.9498 56.9744C48.2367 56.75 48.5492 56.5937 48.8873 56.5057C49.2282 56.4148 49.5634 56.3693 49.8929 56.3693C50.1032 56.3693 50.3446 56.3949 50.6174 56.446C50.8929 56.4943 51.1586 56.5952 51.4142 56.7486C51.6728 56.902 51.8873 57.1335 52.0577 57.4432C52.2282 57.7528 52.3134 58.1676 52.3134 58.6875V63H51.3077V62.1136H51.2566C51.1884 62.2557 51.0748 62.4077 50.9157 62.5696C50.7566 62.7315 50.5449 62.8693 50.2807 62.983C50.0165 63.0966 49.6941 63.1534 49.3134 63.1534ZM49.4668 62.25C49.8645 62.25 50.1998 62.1719 50.4725 62.0156C50.748 61.8594 50.9554 61.6577 51.0946 61.4105C51.2367 61.1634 51.3077 60.9034 51.3077 60.6307V59.7102C51.2651 59.7614 51.1713 59.8082 51.0265 59.8509C50.8844 59.8906 50.7196 59.9261 50.5321 59.9574C50.3475 59.9858 50.1671 60.0114 49.9909 60.0341C49.8176 60.054 49.677 60.071 49.5691 60.0852C49.3077 60.1193 49.0634 60.1747 48.8361 60.2514C48.6117 60.3253 48.4299 60.4375 48.2907 60.5881C48.1543 60.7358 48.0861 60.9375 48.0861 61.1932C48.0861 61.5426 48.2154 61.8068 48.4739 61.9858C48.7353 62.1619 49.0662 62.25 49.4668 62.25ZM55.1547 54.2727V63H54.149V54.2727H55.1547Z" fill="black"/>
<rect x="6" y="6" width="58" height="43" fill="#FBFBFC"/>
<path d="M21 26.5001C21 25.8985 21.4339 25.4064 21.9642 25.4064H24.8572C25.3876 25.4064 25.8214 25.8985 25.8214 26.5001C25.8214 27.1016 25.3876 27.5937 24.8572 27.5937H21.9642C21.4338 27.5937 21 27.1016 21 26.5001ZM25.8214 33.0625C25.8214 32.4609 25.3876 31.9688 24.8572 31.9688H21.9642C21.4338 31.9688 21 32.4609 21 33.0625C21 33.6641 21.4339 34.1562 21.9642 34.1562H24.8572C25.3876 34.1562 25.8214 33.6641 25.8214 33.0625ZM21.9642 21.0312H24.8572C25.3876 21.0312 25.8214 20.5392 25.8214 19.9376C25.8214 19.336 25.3876 18.8439 24.8572 18.8439H21.9642C21.4338 18.8439 21 19.336 21 19.9376C21 20.5392 21.4339 21.0312 21.9642 21.0312ZM48 12.2811V40.7186C48 42.5232 46.6981 44 45.107 44H25.8212C24.2301 44 22.9281 42.5233 22.9281 40.7186L22.9285 35.2502H24.8569C25.9176 35.2502 26.7853 34.266 26.7853 33.0629C26.7853 31.8598 25.9176 30.8756 24.8569 30.8756H22.9285V28.6883H24.8569C25.9176 28.6883 26.7853 27.7041 26.7853 26.501C26.7853 25.2979 25.9176 24.3137 24.8569 24.3137H22.9285V22.1264H24.8569C25.9176 22.1264 26.7853 21.1422 26.7853 19.9391C26.7853 18.7359 25.9176 17.7518 24.8569 17.7518H22.9285V12.2814C22.9285 10.4768 24.2304 9 25.8215 9H45.1073C46.6981 9.00038 48 10.4771 48 12.2814L48 12.2811ZM40.2855 29.2342C40.2855 28.9061 40.0928 28.6871 39.8032 28.6871H31.1246C30.8354 28.6871 30.6424 28.9057 30.6424 29.2342C30.6424 29.5622 30.8351 29.7812 31.1246 29.7812H39.8032C40.0925 29.7812 40.2852 29.5622 40.2852 29.2342H40.2855ZM42.2143 25.9527C42.2143 25.6247 42.0216 25.4057 41.732 25.4057L31.1248 25.4061C30.8356 25.4061 30.6425 25.6247 30.6425 25.9531C30.6425 26.2812 30.8352 26.5001 31.1248 26.5001H41.732C42.0212 26.4998 42.2143 26.2812 42.2143 25.9527ZM42.2143 22.6717C42.2143 22.3436 42.0216 22.1246 41.732 22.1246H31.1248C30.8356 22.1246 30.6425 22.3432 30.6425 22.6717C30.6425 22.9997 30.8352 23.2187 31.1248 23.2187H41.732C42.0212 23.2183 42.2143 22.9997 42.2143 22.6717ZM42.2143 19.3902C42.2143 19.0622 42.0216 18.8432 41.732 18.8432L31.1248 18.8436C30.8356 18.8436 30.6425 19.0622 30.6425 19.3906C30.6425 19.7187 30.8352 19.9376 31.1248 19.9376H41.732C42.0212 19.9373 42.2143 19.7183 42.2143 19.3902Z" fill="#FEA724"/>
<rect x="0.5" y="0.5" width="69" height="71" rx="7.5" stroke="#E3E4E8"/>
</svg>
