<svg width="70" height="72" viewBox="0 0 70 72" fill="none" xmlns="http://www.w3.org/2000/svg">
<path d="M20.8224 63V54.2727H23.7713C24.456 54.2727 25.0156 54.3963 25.4503 54.6435C25.8878 54.8878 26.2116 55.2188 26.4219 55.6364C26.6321 56.054 26.7372 56.5199 26.7372 57.0341C26.7372 57.5483 26.6321 58.0156 26.4219 58.4361C26.2145 58.8565 25.8935 59.1918 25.4588 59.4418C25.0241 59.6889 24.4673 59.8125 23.7884 59.8125H21.6747V58.875H23.7543C24.223 58.875 24.5994 58.794 24.8835 58.6321C25.1676 58.4702 25.3736 58.2514 25.5014 57.9759C25.6321 57.6974 25.6974 57.3835 25.6974 57.0341C25.6974 56.6847 25.6321 56.3722 25.5014 56.0966C25.3736 55.821 25.1662 55.6051 24.8793 55.4489C24.5923 55.2898 24.2116 55.2102 23.7372 55.2102H21.8793V63H20.8224ZM32.4283 60.3239V56.4545H33.4339V63H32.4283V61.892H32.3601C32.2067 62.2244 31.968 62.5071 31.6442 62.7401C31.3203 62.9702 30.9112 63.0852 30.4169 63.0852C30.0078 63.0852 29.6442 62.9957 29.326 62.8168C29.0078 62.6349 28.7578 62.3622 28.576 61.9986C28.3942 61.6321 28.3033 61.1705 28.3033 60.6136V56.4545H29.3089V60.5455C29.3089 61.0227 29.4425 61.4034 29.7095 61.6875C29.9794 61.9716 30.3232 62.1136 30.7408 62.1136C30.9908 62.1136 31.245 62.0497 31.5036 61.9219C31.7649 61.794 31.9837 61.598 32.1598 61.3338C32.3388 61.0696 32.4283 60.733 32.4283 60.3239ZM36.2816 54.2727V63H35.2759V54.2727H36.2816ZM42.7599 57.9205L41.8565 58.1761C41.7997 58.0256 41.7159 57.8793 41.6051 57.7372C41.4972 57.5923 41.3494 57.473 41.1619 57.3793C40.9744 57.2855 40.7344 57.2386 40.4418 57.2386C40.0412 57.2386 39.7074 57.331 39.4403 57.5156C39.1761 57.6974 39.044 57.929 39.044 58.2102C39.044 58.4602 39.1349 58.6577 39.3168 58.8026C39.4986 58.9474 39.7827 59.0682 40.169 59.1648L41.1406 59.4034C41.7259 59.5455 42.1619 59.7628 42.4489 60.0554C42.7358 60.3452 42.8793 60.7187 42.8793 61.1761C42.8793 61.5511 42.7713 61.8864 42.5554 62.1818C42.3423 62.4773 42.044 62.7102 41.6605 62.8807C41.277 63.0511 40.831 63.1364 40.3224 63.1364C39.6548 63.1364 39.1023 62.9915 38.6648 62.7017C38.2273 62.4119 37.9503 61.9886 37.8338 61.4318L38.7884 61.1932C38.8793 61.5455 39.0511 61.8097 39.304 61.9858C39.5597 62.1619 39.8935 62.25 40.3054 62.25C40.7741 62.25 41.1463 62.1506 41.4219 61.9517C41.7003 61.75 41.8395 61.5085 41.8395 61.2273C41.8395 61 41.7599 60.8097 41.6009 60.6562C41.4418 60.5 41.1974 60.3835 40.8679 60.3068L39.777 60.0511C39.1776 59.9091 38.7372 59.6889 38.456 59.3906C38.1776 59.0895 38.0384 58.7131 38.0384 58.2614C38.0384 57.892 38.142 57.5653 38.3494 57.2812C38.5597 56.9972 38.8452 56.7741 39.206 56.6122C39.5696 56.4503 39.9815 56.3693 40.4418 56.3693C41.0895 56.3693 41.598 56.5114 41.9673 56.7955C42.3395 57.0795 42.6037 57.4545 42.7599 57.9205ZM46.3192 63.1534C45.9045 63.1534 45.5281 63.0753 45.19 62.919C44.8519 62.7599 44.5835 62.5312 44.3846 62.233C44.1857 61.9318 44.0863 61.5682 44.0863 61.142C44.0863 60.767 44.1602 60.4631 44.3079 60.2301C44.4556 59.9943 44.6531 59.8097 44.9002 59.6761C45.1474 59.5426 45.4201 59.4432 45.7184 59.3778C46.0195 59.3097 46.3221 59.2557 46.6261 59.2159C47.0238 59.1648 47.3462 59.1264 47.5934 59.1009C47.8434 59.0724 48.0252 59.0256 48.1388 58.9602C48.2553 58.8949 48.3136 58.7812 48.3136 58.6193V58.5852C48.3136 58.1648 48.1985 57.8381 47.9684 57.6051C47.7411 57.3722 47.396 57.2557 46.9329 57.2557C46.4528 57.2557 46.0763 57.3608 45.8036 57.571C45.5309 57.7812 45.3391 58.0057 45.2283 58.2443L44.2738 57.9034C44.4442 57.5057 44.6715 57.196 44.9556 56.9744C45.2425 56.75 45.555 56.5937 45.8931 56.5057C46.234 56.4148 46.5692 56.3693 46.8988 56.3693C47.109 56.3693 47.3505 56.3949 47.6232 56.446C47.8988 56.4943 48.1644 56.5952 48.4201 56.7486C48.6786 56.902 48.8931 57.1335 49.0636 57.4432C49.234 57.7528 49.3192 58.1676 49.3192 58.6875V63H48.3136V62.1136H48.2624C48.1942 62.2557 48.0806 62.4077 47.9215 62.5696C47.7624 62.7315 47.5508 62.8693 47.2866 62.983C47.0224 63.0966 46.6999 63.1534 46.3192 63.1534ZM46.4727 62.25C46.8704 62.25 47.2056 62.1719 47.4783 62.0156C47.7539 61.8594 47.9613 61.6577 48.1005 61.4105C48.2425 61.1634 48.3136 60.9034 48.3136 60.6307V59.7102C48.271 59.7614 48.1772 59.8082 48.0323 59.8509C47.8903 59.8906 47.7255 59.9261 47.538 59.9574C47.3533 59.9858 47.1729 60.0114 46.9968 60.0341C46.8235 60.054 46.6829 60.071 46.5749 60.0852C46.3136 60.1193 46.0692 60.1747 45.842 60.2514C45.6175 60.3253 45.4357 60.4375 45.2965 60.5881C45.1602 60.7358 45.092 60.9375 45.092 61.1932C45.092 61.5426 45.2212 61.8068 45.4798 61.9858C45.7411 62.1619 46.0721 62.25 46.4727 62.25Z" fill="black"/>
<rect x="6" y="6" width="58" height="43" fill="#FBFBFC"/>
<path d="M34.784 19.3071L46.9645 19.1731V19.1733C47.3199 19.1962 47.6676 19.0621 47.9161 18.8068C48.1643 18.5515 48.2883 18.2003 48.2557 17.8455C48.1556 17.4774 47.9411 17.1506 47.6434 16.9121C47.346 16.6734 46.9803 16.5356 46.5991 16.5179C42.555 16.5179 38.7305 16.5179 34.6378 16.6397C33.9397 16.6217 33.2561 16.8425 32.7004 17.2656C32.1444 17.6886 31.7496 18.2884 31.5808 18.9662C31.4821 19.7773 31.5068 20.5986 31.6536 21.4023C31.764 21.0541 31.9285 20.7251 32.1408 20.4279C32.8162 19.6865 33.7817 19.277 34.7841 19.3072L34.784 19.3071Z" fill="#D9D9D9"/>
<path d="M46.0629 27.4191C46.0629 27.0186 46.222 26.6344 46.5053 26.3511C46.7886 26.0678 47.1727 25.9087 47.5733 25.9087H50.4602C50.7204 25.9226 50.9746 25.8261 51.16 25.6431C51.3455 25.4598 51.4452 25.207 51.4346 24.9465C51.4346 24.4715 51.3737 23.9966 51.3373 23.5335C51.1668 21.7551 50.9474 20.1475 47.6832 20.1475C43.4564 20.1475 39.2181 20.0621 34.9793 20.3179H34.979C34.0796 20.3965 33.2351 20.7842 32.5891 21.4147C31.9431 22.0453 31.535 22.8799 31.4344 23.7771C31.3134 26.0917 31.3583 28.412 31.5684 30.72C31.6976 31.6175 32.131 32.4435 32.796 33.0598C33.461 33.6762 34.3177 34.0457 35.2226 34.106C39.4493 34.2401 43.6758 33.9356 47.9265 33.9356C51.1666 33.9356 51.3615 32.2548 51.4711 30.4764V29.8309C51.4781 29.5745 51.3784 29.3271 51.1962 29.1469C51.0138 28.9669 50.765 28.8706 50.5089 28.8807H47.561C47.169 28.8839 46.7916 28.7322 46.511 28.4584C46.2304 28.1847 46.0692 27.8111 46.063 27.419L46.0629 27.4191Z" fill="#D9D9D9"/>
<path d="M48.4746 27.3462C48.4746 27.8239 48.0874 28.2111 47.6097 28.2111C47.1323 28.2111 46.7451 27.824 46.7451 27.3462C46.7451 26.8688 47.1323 26.4816 47.6097 26.4816C48.0874 26.4816 48.4746 26.8688 48.4746 27.3462Z" fill="#D9D9D9"/>
<path d="M39.5176 35.4584C35.2319 35.6534 30.9335 35.6534 26.6479 35.4584C26.343 35.4465 26.0545 35.3279 25.84 35.1267C25.6252 34.9258 25.5008 34.6569 25.4911 34.3744C25.3773 27.9837 25.4166 21.5891 25.6094 15.1905C25.6311 14.9102 25.757 14.6454 25.9653 14.4411C26.174 14.237 26.4521 14.1056 26.7532 14.0697C30.967 13.7775 35.199 13.7775 39.4126 14.0697C39.7095 14.1048 39.9845 14.2323 40.1926 14.4316C40.4003 14.6309 40.5289 14.89 40.5564 15.166C41.6739 15.2514 42.7781 15.3487 43.8955 15.4705L43.8166 14.0089C43.7461 13.1116 43.3506 12.2628 42.6944 11.5997C42.0386 10.9363 41.16 10.4977 40.2013 10.3547C35.4605 9.87374 30.6767 9.8819 25.9373 10.3792C24.9795 10.5241 24.1024 10.9635 23.4469 11.6263C22.791 12.2889 22.3949 13.1366 22.3221 14.0333C21.884 22.7218 21.8928 31.4194 22.3485 40.1239C22.4257 41.0125 22.8204 41.852 23.4704 42.5094C24.1204 43.1668 24.9886 43.6045 25.9373 43.7536C30.6685 44.2411 35.4432 44.2411 40.1743 43.7536C41.133 43.6106 42.0115 43.172 42.6676 42.5089C43.3238 41.8457 43.719 40.9966 43.7895 40.0994C43.8816 38.4796 43.9473 36.8471 43.9999 35.2272C44.0263 35.2637 39.9113 35.4708 39.517 35.4586L39.5176 35.4584ZM35.8367 39.7094C35.8405 39.8592 35.778 40.0035 35.6635 40.1093C35.5494 40.2151 35.3936 40.2732 35.2322 40.2697H30.9332C30.5993 40.2697 30.3285 40.019 30.3285 39.7094V39.2466C30.3355 38.9399 30.6022 38.6928 30.9332 38.6862H35.2322C35.5661 38.6862 35.8367 38.9372 35.8367 39.2466V39.7094Z" fill="#D9D9D9"/>
<rect x="0.5" y="0.5" width="69" height="71" rx="7.5" stroke="#E3E4E8"/>
</svg>
