<svg width="70" height="72" viewBox="0 0 70 72" fill="none" xmlns="http://www.w3.org/2000/svg">
<path d="M19.0236 63V54.2727H20.0804V62.0625H24.1373V63H19.0236ZM25.6373 63V56.4545H26.6429V63H25.6373ZM26.1486 55.3636C25.9526 55.3636 25.7836 55.2969 25.6415 55.1634C25.5023 55.0298 25.4327 54.8693 25.4327 54.6818C25.4327 54.4943 25.5023 54.3338 25.6415 54.2003C25.7836 54.0668 25.9526 54 26.1486 54C26.3446 54 26.5123 54.0668 26.6515 54.2003C26.7935 54.3338 26.8645 54.4943 26.8645 54.6818C26.8645 54.8693 26.7935 55.0298 26.6515 55.1634C26.5123 55.2969 26.3446 55.3636 26.1486 55.3636ZM33.1213 57.9205L32.2179 58.1761C32.161 58.0256 32.0772 57.8793 31.9664 57.7372C31.8585 57.5923 31.7108 57.473 31.5233 57.3793C31.3358 57.2855 31.0957 57.2386 30.8031 57.2386C30.4025 57.2386 30.0687 57.331 29.8017 57.5156C29.5375 57.6974 29.4054 57.929 29.4054 58.2102C29.4054 58.4602 29.4963 58.6577 29.6781 58.8026C29.8599 58.9474 30.144 59.0682 30.5304 59.1648L31.502 59.4034C32.0872 59.5455 32.5233 59.7628 32.8102 60.0554C33.0971 60.3452 33.2406 60.7187 33.2406 61.1761C33.2406 61.5511 33.1326 61.8864 32.9167 62.1818C32.7037 62.4773 32.4054 62.7102 32.0218 62.8807C31.6383 63.0511 31.1923 63.1364 30.6838 63.1364C30.0162 63.1364 29.4636 62.9915 29.0261 62.7017C28.5886 62.4119 28.3116 61.9886 28.1951 61.4318L29.1497 61.1932C29.2406 61.5455 29.4125 61.8097 29.6653 61.9858C29.921 62.1619 30.2548 62.25 30.6667 62.25C31.1355 62.25 31.5076 62.1506 31.7832 61.9517C32.0616 61.75 32.2008 61.5085 32.2008 61.2273C32.2008 61 32.1213 60.8097 31.9622 60.6562C31.8031 60.5 31.5588 60.3835 31.2292 60.3068L30.1383 60.0511C29.5389 59.9091 29.0985 59.6889 28.8173 59.3906C28.5389 59.0895 28.3997 58.7131 28.3997 58.2614C28.3997 57.892 28.5034 57.5653 28.7108 57.2812C28.921 56.9972 29.2065 56.7741 29.5673 56.6122C29.9309 56.4503 30.3429 56.3693 30.8031 56.3693C31.4508 56.3693 31.9593 56.5114 32.3287 56.7955C32.7008 57.0795 32.965 57.4545 33.1213 57.9205ZM37.601 56.4545V57.3068H34.209V56.4545H37.601ZM35.1976 54.8864H36.2033V61.125C36.2033 61.4091 36.2445 61.6222 36.3269 61.7642C36.4121 61.9034 36.5201 61.9972 36.6507 62.0455C36.7843 62.0909 36.9249 62.1136 37.0726 62.1136C37.1834 62.1136 37.2743 62.108 37.3453 62.0966C37.4164 62.0824 37.4732 62.071 37.5158 62.0625L37.7203 62.9659C37.6522 62.9915 37.557 63.017 37.4348 63.0426C37.3127 63.071 37.1578 63.0852 36.9703 63.0852C36.6863 63.0852 36.4078 63.0241 36.1351 62.902C35.8652 62.7798 35.6408 62.5938 35.4618 62.3438C35.2857 62.0938 35.1976 61.7784 35.1976 61.3977V54.8864ZM39.1138 63V56.4545H40.0854V57.4432H40.1536C40.2729 57.1193 40.4888 56.8565 40.8013 56.6548C41.1138 56.4531 41.4661 56.3523 41.8581 56.3523C41.932 56.3523 42.0243 56.3537 42.1351 56.3565C42.2459 56.3594 42.3297 56.3636 42.3865 56.3693V57.392C42.3525 57.3835 42.2743 57.3707 42.1522 57.3537C42.0328 57.3338 41.9064 57.3239 41.7729 57.3239C41.4547 57.3239 41.1706 57.3906 40.9206 57.5241C40.6735 57.6548 40.4775 57.8366 40.3326 58.0696C40.1905 58.2997 40.1195 58.5625 40.1195 58.858V63H39.1138ZM43.5787 63V56.4545H44.5843V63H43.5787ZM44.09 55.3636C43.894 55.3636 43.725 55.2969 43.5829 55.1634C43.4437 55.0298 43.3741 54.8693 43.3741 54.6818C43.3741 54.4943 43.4437 54.3338 43.5829 54.2003C43.725 54.0668 43.894 54 44.09 54C44.286 54 44.4537 54.0668 44.5929 54.2003C44.7349 54.3338 44.8059 54.4943 44.8059 54.6818C44.8059 54.8693 44.7349 55.0298 44.5929 55.1634C44.4537 55.2969 44.286 55.3636 44.09 55.3636ZM47.3638 60.6136L47.3468 59.3693H47.5513L50.415 56.4545H51.6593L48.6081 59.5398H48.5229L47.3638 60.6136ZM46.4263 63V54.2727H47.432V63H46.4263ZM50.5854 63L48.0286 59.7614L48.7445 59.0625L51.8638 63H50.5854Z" fill="black"/>
<rect x="6" y="6" width="58" height="43" fill="#FBFBFC"/>
<path d="M35.7502 11.5C35.5971 11.5 35.4477 11.5469 35.322 11.6344C35.1963 11.7218 35.1004 11.8457 35.0471 11.9893L26.2317 28.7031C26.0811 28.9417 26.0009 29.2179 26.0002 29.5C26.0002 29.8978 26.1583 30.2794 26.4396 30.5607C26.7209 30.842 27.1024 31 27.5002 31H35.0002V43.75C35.0002 43.9489 35.0793 44.1397 35.2199 44.2803C35.3606 44.421 35.5513 44.5 35.7502 44.5C35.8883 44.5002 36.0237 44.4622 36.1415 44.3904C36.2594 44.3185 36.3551 44.2155 36.4182 44.0928L45.2981 27.2529L45.2952 27.25C45.4283 27.0224 45.499 26.7637 45.5002 26.5C45.5002 26.1022 45.3422 25.7206 45.0609 25.4393C44.7796 25.158 44.3981 25 44.0002 25H36.5002V12.25C36.5002 12.0511 36.4212 11.8603 36.2806 11.7197C36.1399 11.579 35.9492 11.5 35.7502 11.5V11.5ZM21.4856 14.4854C21.1872 14.4854 20.8956 14.5745 20.6481 14.7412C20.4006 14.9078 20.2084 15.1445 20.0961 15.421C19.9838 15.6975 19.9565 16.0011 20.0177 16.2932C20.0789 16.5853 20.2259 16.8524 20.4397 17.0605L23.4397 20.0605C23.5779 20.2045 23.7435 20.3194 23.9267 20.3986C24.1099 20.4778 24.307 20.5196 24.5066 20.5216C24.7061 20.5237 24.9041 20.4859 25.0889 20.4104C25.2736 20.335 25.4415 20.2235 25.5826 20.0823C25.7237 19.9412 25.8352 19.7734 25.9107 19.5886C25.9861 19.4038 26.0239 19.2059 26.0219 19.0063C26.0199 18.8068 25.978 18.6096 25.8989 18.4264C25.8197 18.2432 25.7048 18.0777 25.5608 17.9395L22.5608 14.9395C22.421 14.7958 22.2538 14.6815 22.0692 14.6035C21.8845 14.5256 21.6861 14.4854 21.4856 14.4854V14.4854ZM48.471 14.4854C48.0813 14.497 47.7114 14.6598 47.4397 14.9395L44.4397 17.9395C44.2957 18.0777 44.1808 18.2432 44.1016 18.4264C44.0225 18.6096 43.9806 18.8068 43.9786 19.0063C43.9766 19.2059 44.0144 19.4038 44.0898 19.5886C44.1652 19.7734 44.2768 19.9412 44.4179 20.0823C44.559 20.2235 44.7269 20.335 44.9116 20.4104C45.0964 20.4859 45.2944 20.5237 45.4939 20.5217C45.6935 20.5196 45.8906 20.4778 46.0738 20.3986C46.257 20.3194 46.4226 20.2045 46.5608 20.0605L49.5608 17.0605C49.7775 16.8499 49.9256 16.5786 49.9855 16.2823C50.0455 15.986 50.0145 15.6786 49.8967 15.4002C49.7789 15.1218 49.5797 14.8855 49.3253 14.7223C49.0709 14.559 48.7731 14.4764 48.471 14.4854V14.4854ZM24.471 35.4854C24.0813 35.497 23.7114 35.6598 23.4397 35.9395L20.4397 38.9395C20.2957 39.0777 20.1808 39.2432 20.1016 39.4264C20.0225 39.6096 19.9806 39.8068 19.9786 40.0063C19.9766 40.2059 20.0144 40.4038 20.0898 40.5886C20.1652 40.7734 20.2768 40.9412 20.4179 41.0823C20.559 41.2235 20.7269 41.335 20.9116 41.4104C21.0964 41.4859 21.2944 41.5237 21.4939 41.5217C21.6935 41.5196 21.8906 41.4778 22.0738 41.3986C22.257 41.3194 22.4226 41.2045 22.5608 41.0605L25.5608 38.0605C25.7775 37.8499 25.9256 37.5786 25.9855 37.2823C26.0455 36.986 26.0145 36.6786 25.8967 36.4002C25.7789 36.1218 25.5797 35.8855 25.3253 35.7223C25.0709 35.559 24.7731 35.4764 24.471 35.4854V35.4854ZM45.4856 35.4854C45.1872 35.4854 44.8956 35.5745 44.6481 35.7412C44.4006 35.9078 44.2084 36.1445 44.0961 36.421C43.9838 36.6975 43.9565 37.0011 44.0177 37.2932C44.0789 37.5853 44.2259 37.8524 44.4397 38.0605L47.4397 41.0605C47.5779 41.2045 47.7435 41.3194 47.9267 41.3986C48.1099 41.4778 48.307 41.5196 48.5066 41.5217C48.7061 41.5237 48.9041 41.4859 49.0889 41.4104C49.2736 41.335 49.4415 41.2235 49.5826 41.0824C49.7237 40.9412 49.8353 40.7734 49.9107 40.5886C49.9861 40.4038 50.0239 40.2059 50.0219 40.0063C50.0199 39.8068 49.978 39.6096 49.8989 39.4264C49.8197 39.2432 49.7048 39.0777 49.5608 38.9395L46.5608 35.9395C46.421 35.7958 46.2538 35.6815 46.0692 35.6035C45.8845 35.5256 45.6861 35.4854 45.4856 35.4854V35.4854Z" fill="#D9D9D9"/>
<rect x="0.5" y="0.5" width="69" height="71" rx="7.5" stroke="#E3E4E8"/>
</svg>
