<svg width="70" height="72" viewBox="0 0 70 72" fill="none" xmlns="http://www.w3.org/2000/svg">
<path d="M28.6687 63H27.5607L30.7653 54.2727H31.8562L35.0607 63H33.9528L31.3448 55.6534H31.2766L28.6687 63ZM29.0778 59.5909H33.5437V60.5284H29.0778V59.5909ZM36.354 63V56.4545H37.3597V63H36.354ZM36.8654 55.3636C36.6694 55.3636 36.5004 55.2969 36.3583 55.1634C36.2191 55.0298 36.1495 54.8693 36.1495 54.6818C36.1495 54.4943 36.2191 54.3338 36.3583 54.2003C36.5004 54.0668 36.6694 54 36.8654 54C37.0614 54 37.229 54.0668 37.3683 54.2003C37.5103 54.3338 37.5813 54.4943 37.5813 54.6818C37.5813 54.8693 37.5103 55.0298 37.3683 55.1634C37.229 55.2969 37.0614 55.3636 36.8654 55.3636ZM39.2017 63V56.4545H40.1733V57.4432H40.2415C40.3608 57.1193 40.5767 56.8565 40.8892 56.6548C41.2017 56.4531 41.554 56.3523 41.946 56.3523C42.0199 56.3523 42.1122 56.3537 42.223 56.3565C42.3338 56.3594 42.4176 56.3636 42.4744 56.3693V57.392C42.4403 57.3835 42.3622 57.3707 42.2401 57.3537C42.1207 57.3338 41.9943 57.3239 41.8608 57.3239C41.5426 57.3239 41.2585 57.3906 41.0085 57.5241C40.7614 57.6548 40.5653 57.8366 40.4205 58.0696C40.2784 58.2997 40.2074 58.5625 40.2074 58.858V63H39.2017Z" fill="black"/>
<rect x="6" y="6" width="58" height="43" fill="#FBFBFC"/>
<path d="M35 11C29.2873 17.3786 24 24.9484 24 31.7281C24 38.5078 28.9283 44 35 44C41.0717 44 46 38.5077 46 31.7281C46 24.9488 40.7124 17.379 35 11ZM27.5903 30.3492C27.8398 30.3155 28.0907 30.4007 28.2701 30.5797C28.4494 30.7586 28.5369 31.0113 28.5071 31.2645C28.2914 33.6188 29.7003 36.7421 31.3588 37.9291C31.547 38.0491 31.6785 38.2419 31.7226 38.4626C31.7669 38.6835 31.72 38.9129 31.5933 39.0979C31.4663 39.2826 31.2702 39.4069 31.0502 39.442C30.8305 39.4768 30.6063 39.4193 30.4296 39.2826C28.1118 37.6241 26.5964 34.1801 26.8776 31.11V31.1097C26.9048 30.7163 27.2038 30.3975 27.5903 30.3492Z" fill="#D9D9D9"/>
<rect x="0.5" y="0.5" width="69" height="71" rx="7.5" stroke="#E3E4E8"/>
</svg>
