<svg width="48" height="48" viewBox="0 0 48 48" fill="none" xmlns="http://www.w3.org/2000/svg">
<circle cx="24" cy="24" r="24" fill="#B9D4FF"/>
<path d="M30.0736 25.0899L34.2443 21.4159C34.8331 20.8963 35.704 20.8592 36.3296 21.3293C37.0656 21.8859 37.2251 22.9374 36.6608 23.6796C35.2992 25.4981 32.7723 28.7392 30.5888 30.8669C30.1104 31.3246 29.497 31.5967 28.8469 31.6586L19.6667 32.591" fill="#FEC478"/>
<path d="M26.5734 26.7064H15.0364L18.0251 33.2282L28.329 28.989L28.9142 28.1738L28.5798 27.114L27.8274 26.7064H26.5734Z" fill="#FEC478" stroke="#FEC478"/>
<path d="M15.5615 27.019C15.5615 27.019 16.6793 23.8207 19.424 23.7311C21.2373 23.6799 22.3799 24.1533 22.9388 24.4859C23.2866 24.6906 23.6964 24.7802 24.1062 24.7802H29.012C29.8938 24.7802 30.6142 25.5222 30.6142 26.4305C30.6142 27.3261 29.9311 28.0553 29.0617 28.0809L23.5598 28.2728" fill="#FEC478"/>
<path d="M15.5615 27.019C15.5615 27.019 16.6793 23.8207 19.424 23.7311C21.2373 23.6799 22.3799 24.1533 22.9388 24.4859C23.2866 24.6906 23.6964 24.7802 24.1062 24.7802H29.012C29.8938 24.7802 30.6142 25.5222 30.6142 26.4305C30.6142 27.3261 29.9311 28.0553 29.0617 28.0809L23.5598 28.2728" stroke="#FEB756" stroke-width="0.8" stroke-miterlimit="10" stroke-linecap="round" stroke-linejoin="round"/>
<path d="M19.6209 34.427L17.5827 35.9472C17.4695 36.0352 17.3185 36.0101 17.2304 35.897L11.053 27.6675C10.9649 27.5544 10.9901 27.4037 11.1033 27.3157L13.1415 25.7955C13.6951 25.3809 14.4877 25.4939 14.9029 26.0468L19.8725 32.668C20.2877 33.2334 20.1745 34.0124 19.6209 34.427Z" fill="#0D64EF" stroke="#9377F0" stroke-miterlimit="10" stroke-linecap="round" stroke-linejoin="round"/>
<path d="M26.8291 13.1708C25.2671 11.6097 22.7308 11.6097 21.1687 13.1708C19.9237 14.4151 19.6758 16.27 20.4136 17.762L20.2292 19.2425C20.1946 19.5478 20.4482 19.8013 20.7537 19.7667L22.2293 19.5882C23.7223 20.3255 25.5841 20.072 26.8234 18.8335C28.3912 17.2666 28.3912 14.732 26.8291 13.1708Z" fill="#0D64EF"/>
<path d="M23.4818 17L23.0018 16.166H22.7408V17H22.3988V14.915H23.1188C23.2788 14.915 23.4138 14.943 23.5238 14.999C23.6358 15.055 23.7188 15.13 23.7728 15.224C23.8288 15.318 23.8568 15.423 23.8568 15.539C23.8568 15.675 23.8168 15.799 23.7368 15.911C23.6588 16.021 23.5378 16.096 23.3738 16.136L23.8898 17H23.4818ZM22.7408 15.893H23.1188C23.2468 15.893 23.3428 15.861 23.4068 15.797C23.4728 15.733 23.5058 15.647 23.5058 15.539C23.5058 15.431 23.4738 15.347 23.4098 15.287C23.3458 15.225 23.2488 15.194 23.1188 15.194H22.7408V15.893ZM24.6363 15.59C24.6943 15.514 24.7733 15.45 24.8733 15.398C24.9733 15.346 25.0863 15.32 25.2123 15.32C25.3563 15.32 25.4873 15.356 25.6053 15.428C25.7253 15.498 25.8193 15.597 25.8873 15.725C25.9553 15.853 25.9893 16 25.9893 16.166C25.9893 16.332 25.9553 16.481 25.8873 16.613C25.8193 16.743 25.7253 16.845 25.6053 16.919C25.4873 16.991 25.3563 17.027 25.2123 17.027C25.0863 17.027 24.9743 17.002 24.8763 16.952C24.7783 16.9 24.6983 16.836 24.6363 16.76V17.786H24.2943V15.347H24.6363V15.59ZM25.6413 16.166C25.6413 16.052 25.6173 15.954 25.5693 15.872C25.5233 15.788 25.4613 15.725 25.3833 15.683C25.3073 15.639 25.2253 15.617 25.1373 15.617C25.0513 15.617 24.9693 15.639 24.8913 15.683C24.8153 15.727 24.7533 15.791 24.7053 15.875C24.6593 15.959 24.6363 16.058 24.6363 16.172C24.6363 16.286 24.6593 16.386 24.7053 16.472C24.7533 16.556 24.8153 16.62 24.8913 16.664C24.9693 16.708 25.0513 16.73 25.1373 16.73C25.2253 16.73 25.3073 16.708 25.3833 16.664C25.4613 16.618 25.5233 16.552 25.5693 16.466C25.6173 16.38 25.6413 16.28 25.6413 16.166ZM26.4655 17.021C26.4035 17.021 26.3515 17 26.3095 16.958C26.2675 16.916 26.2465 16.864 26.2465 16.802C26.2465 16.74 26.2675 16.688 26.3095 16.646C26.3515 16.604 26.4035 16.583 26.4655 16.583C26.5255 16.583 26.5765 16.604 26.6185 16.646C26.6605 16.688 26.6815 16.74 26.6815 16.802C26.6815 16.864 26.6605 16.916 26.6185 16.958C26.5765 17 26.5255 17.021 26.4655 17.021Z" fill="white"/>
</svg>
