<svg width="48" height="48" viewBox="0 0 48 48" fill="none" xmlns="http://www.w3.org/2000/svg">
<circle cx="24" cy="24" r="24" fill="#B9D4FF"/>
<rect x="23" y="20.5731" width="11.9999" height="13.3209" fill="#F6F9F9"/>
<path fill-rule="evenodd" clip-rule="evenodd" d="M23.0001 12.613L35 20.5731H23.0001V12.613Z" fill="#F6F9F9"/>
<rect width="11.9999" height="13.3209" transform="matrix(-1 0 0 1 23 20.5732)" fill="white"/>
<path fill-rule="evenodd" clip-rule="evenodd" d="M22.9999 12.613L11 20.5731H22.9999V12.613Z" fill="white"/>
<path fill-rule="evenodd" clip-rule="evenodd" d="M22.9312 14.9896H18.5657L17.3486 29.7741H22.9312H28.5139L27.2968 14.9896H22.9312Z" fill="#0D64EF"/>
<path d="M22.1615 9.32781L15.4209 15.1906C15.0092 15.5487 15.2624 16.2258 15.8081 16.2258H29.6638C30.2172 16.2258 30.4661 15.5324 30.039 15.1805L22.9239 9.31765C22.7014 9.13432 22.379 9.13862 22.1615 9.32781Z" fill="#0D64EF"/>
<path d="M21.6422 22L21.0022 20.888H20.6542V22H20.1982V19.22H21.1582C21.3715 19.22 21.5515 19.2573 21.6982 19.332C21.8475 19.4067 21.9582 19.5067 22.0302 19.632C22.1049 19.7573 22.1422 19.8973 22.1422 20.052C22.1422 20.2333 22.0889 20.3987 21.9822 20.548C21.8782 20.6947 21.7169 20.7947 21.4982 20.848L22.1862 22H21.6422ZM20.6542 20.524H21.1582C21.3289 20.524 21.4569 20.4813 21.5422 20.396C21.6302 20.3107 21.6742 20.196 21.6742 20.052C21.6742 19.908 21.6315 19.796 21.5462 19.716C21.4609 19.6333 21.3315 19.592 21.1582 19.592H20.6542V20.524ZM23.1815 20.12C23.2589 20.0187 23.3642 19.9333 23.4975 19.864C23.6309 19.7947 23.7815 19.76 23.9495 19.76C24.1415 19.76 24.3162 19.808 24.4735 19.904C24.6335 19.9973 24.7589 20.1293 24.8495 20.3C24.9402 20.4707 24.9855 20.6667 24.9855 20.888C24.9855 21.1093 24.9402 21.308 24.8495 21.484C24.7589 21.6573 24.6335 21.7933 24.4735 21.892C24.3162 21.988 24.1415 22.036 23.9495 22.036C23.7815 22.036 23.6322 22.0027 23.5015 21.936C23.3709 21.8667 23.2642 21.7813 23.1815 21.68V23.048H22.7255V19.796H23.1815V20.12ZM24.5215 20.888C24.5215 20.736 24.4895 20.6053 24.4255 20.496C24.3642 20.384 24.2815 20.3 24.1775 20.244C24.0762 20.1853 23.9669 20.156 23.8495 20.156C23.7349 20.156 23.6255 20.1853 23.5215 20.244C23.4202 20.3027 23.3375 20.388 23.2735 20.5C23.2122 20.612 23.1815 20.744 23.1815 20.896C23.1815 21.048 23.2122 21.1813 23.2735 21.296C23.3375 21.408 23.4202 21.4933 23.5215 21.552C23.6255 21.6107 23.7349 21.64 23.8495 21.64C23.9669 21.64 24.0762 21.6107 24.1775 21.552C24.2815 21.4907 24.3642 21.4027 24.4255 21.288C24.4895 21.1733 24.5215 21.04 24.5215 20.888ZM25.6205 22.028C25.5378 22.028 25.4685 22 25.4125 21.944C25.3565 21.888 25.3285 21.8187 25.3285 21.736C25.3285 21.6533 25.3565 21.584 25.4125 21.528C25.4685 21.472 25.5378 21.444 25.6205 21.444C25.7005 21.444 25.7685 21.472 25.8245 21.528C25.8805 21.584 25.9085 21.6533 25.9085 21.736C25.9085 21.8187 25.8805 21.888 25.8245 21.944C25.7685 22 25.7005 22.028 25.6205 22.028Z" fill="#F6F9F9"/>
<path d="M24.6616 29.0092L35 22.3793V35.7002L24.6616 29.0092Z" fill="#FFBC42"/>
<path d="M21.3384 29.0092L11 22.3793V35.7002L21.3384 29.0092Z" fill="#FCCF7D"/>
<path d="M11 35.7003H22.9999V36.9999H12.2996C11.5819 36.9999 11 36.4181 11 35.7003Z" fill="#FFBC42"/>
<path fill-rule="evenodd" clip-rule="evenodd" d="M23.0001 27.7404L11 35.7005H23.0001V27.7404Z" fill="#FFBC42"/>
<path d="M35 35.7003H23.0001V36.9999H33.7004C34.4181 36.9999 35 36.4181 35 35.7003Z" fill="#F1C16B"/>
<path fill-rule="evenodd" clip-rule="evenodd" d="M22.9999 27.7404L35 35.7005H22.9999V27.7404Z" fill="#F1C16B"/>
</svg>
