<svg width="432" height="609" viewBox="0 0 432 609" fill="none" xmlns="http://www.w3.org/2000/svg">
<mask id="mask0_373_61952" style="mask-type:alpha" maskUnits="userSpaceOnUse" x="-566" y="-190" width="984" height="904">
<path d="M267.9 643.813C270.777 646.687 275.444 646.69 278.277 643.773C347.394 572.631 393.376 482.205 410.079 384.367C427.194 284.109 412.721 181.016 368.657 89.3288C324.593 -2.35823 253.114 -78.1141 164.093 -127.474C75.0729 -176.833 -27.0953 -197.361 -128.298 -186.22C-229.5 -175.08 -324.742 -132.821 -400.866 -65.2822C-476.99 2.2569 -530.24 91.7431 -553.26 190.815C-576.279 289.886 -567.932 393.654 -529.372 487.783C-491.741 579.641 -427.15 657.896 -344.183 712.296C-340.782 714.526 -336.229 713.507 -334.047 710.075C-331.863 706.64 -332.884 702.087 -336.287 699.853C-416.671 647.09 -479.252 571.234 -515.724 482.204C-553.128 390.899 -561.224 290.245 -538.896 194.145C-516.567 98.0456 -464.914 11.2439 -391.074 -54.2689C-317.233 -119.782 -224.849 -160.773 -126.682 -171.579C-28.5162 -182.385 70.587 -162.474 156.937 -114.595C243.287 -66.7159 312.622 6.76726 355.364 95.7036C398.106 184.64 412.145 284.64 395.542 381.89C379.354 476.716 334.811 564.363 267.86 633.345C265.024 636.267 265.018 640.934 267.9 643.813Z" fill="#F7F9FC" fill-opacity="0.2"/>
<path d="M289.185 607.962C291.648 610.417 295.638 610.42 298.064 607.928C358.472 545.888 398.242 466.734 411.86 381.248C425.807 293.692 411.606 203.983 371.289 124.962C330.972 45.9406 266.606 -18.3404 187.406 -58.6794C108.206 -99.0183 18.233 -113.347 -69.6341 -99.614C-157.501 -85.8811 -238.757 -44.7908 -301.769 17.7748C-364.781 80.3403 -406.318 161.173 -420.435 248.702C-434.552 336.23 -420.525 425.967 -380.361 505.066C-341.146 582.297 -278.976 645.521 -202.413 686.154C-199.343 687.783 -195.547 686.56 -193.956 683.47C-192.358 680.369 -193.587 676.563 -196.667 674.926C-270.844 635.508 -331.075 574.224 -369.081 499.375C-408.04 422.649 -421.646 335.605 -407.953 250.702C-394.259 165.799 -353.968 87.3914 -292.846 26.7028C-231.725 -33.9858 -152.907 -73.8434 -67.6756 -87.1643C17.5555 -100.485 104.83 -86.5865 181.654 -47.4577C258.478 -8.32892 320.912 54.0237 360.019 130.674C399.127 207.325 412.902 294.343 399.373 379.272C386.176 462.118 347.658 538.833 289.151 598.987C286.716 601.491 286.711 605.496 289.185 607.962Z" fill="#F7F9FC" fill-opacity="0.2"/>
<path d="M355.967 533.696C358.86 534.919 362.202 533.564 363.381 530.652C392.933 457.634 399.042 377.168 380.778 300.443C362.074 221.87 318.787 151.325 257.22 99.083C195.654 46.8406 119.025 15.6298 38.4955 9.99679C-40.1416 4.49618 -118.487 23.6659 -185.66 64.7609C-188.34 66.4002 -189.131 69.9183 -187.453 72.5735C-185.775 75.2292 -182.263 76.016 -179.582 74.3776C-114.457 34.5773 -38.5183 16.0146 37.7025 21.3462C115.816 26.8102 190.146 57.0846 249.865 107.76C309.585 158.435 351.574 226.864 369.717 303.079C387.42 377.448 381.516 455.441 352.903 526.227C351.726 529.139 353.075 532.474 355.967 533.696Z" fill="#F7F9FC" fill-opacity="0.2"/>
<path d="M325.203 573.05C327.893 574.187 331 572.928 332.096 570.22C351.193 523.037 359.859 472.255 357.475 421.364C355.008 368.71 340.773 317.28 315.818 270.857C290.863 224.434 255.823 184.2 213.275 153.116C172.153 123.071 125.028 102.313 75.1561 92.2447C72.2932 91.6668 69.5306 93.5661 68.996 96.4385C68.4618 99.3094 70.3558 102.065 73.2171 102.644C121.537 112.422 167.193 132.546 207.041 161.658C248.312 191.811 282.301 230.838 306.507 275.868C330.713 320.898 344.521 370.785 346.914 421.859C349.225 471.172 340.838 520.379 322.355 566.107C321.261 568.814 322.515 571.914 325.203 573.05Z" fill="#F7F9FC" fill-opacity="0.2"/>
<path d="M284.944 631.791C287.67 634.034 291.703 633.644 293.904 630.882C330.297 585.218 356.936 532.537 372.141 476.101C387.901 417.605 391.015 356.42 381.275 296.625C371.535 236.831 349.165 179.801 315.657 129.34C282.149 78.8781 238.273 36.1445 186.955 3.98864C135.638 -28.1672 78.0575 -49.0062 18.0549 -57.1387C-41.9478 -65.2712 -102.994 -60.5102 -161.012 -43.1733C-219.031 -25.8363 -272.688 3.67806 -318.406 43.4017C-362.516 81.7281 -398.257 128.708 -423.429 181.406C-424.95 184.591 -423.542 188.387 -420.337 189.861C-417.13 191.336 -413.339 189.927 -411.815 186.742C-387.402 135.697 -352.764 90.1885 -310.028 53.055C-265.681 14.5231 -213.633 -14.1059 -157.356 -30.9227C-101.078 -47.7395 -41.863 -52.3577 16.3396 -44.4692C74.5421 -36.5807 130.395 -16.3668 180.173 14.8243C229.951 46.0155 272.511 87.4671 305.013 136.415C337.516 185.362 359.215 240.681 368.663 298.682C378.111 356.683 375.09 416.032 359.803 472.773C345.071 527.456 319.272 578.504 284.03 622.764C281.831 625.525 282.219 629.55 284.944 631.791Z" fill="#F7F9FC" fill-opacity="0.2"/>
</mask>
<g mask="url(#mask0_373_61952)">
<rect x="5" width="432" height="604" fill="#D9D9D9"/>
</g>
</svg>
