<svg width="1110" height="1111" viewBox="0 0 1110 1111" fill="none" xmlns="http://www.w3.org/2000/svg">
<path d="M861.9 833.813C864.777 836.687 869.444 836.69 872.277 833.773C941.394 762.631 987.376 672.205 1004.08 574.367C1021.19 474.109 1006.72 371.016 962.657 279.329C918.593 187.642 847.114 111.886 758.093 62.5265C669.073 13.1669 566.905 -7.36056 465.702 3.77994C364.5 14.9204 269.258 57.179 193.134 124.718C117.01 192.257 63.7597 281.743 40.7403 380.815C17.7208 479.887 26.0679 583.654 64.6285 677.783C102.259 769.641 166.85 847.896 249.817 902.296C253.218 904.526 257.771 903.507 259.953 900.076V900.076C262.137 896.64 261.116 892.087 257.713 889.853C177.329 837.09 114.748 761.234 78.2759 672.204C40.8722 580.899 32.7755 480.245 55.1044 384.145C77.4332 288.046 129.086 201.244 202.926 135.731C276.767 70.2184 369.151 29.2276 467.318 18.4213C565.484 7.615 664.587 27.5266 750.937 75.4055C837.287 123.284 906.622 196.768 949.364 285.704C992.105 374.64 1006.14 474.641 989.542 571.891C973.354 666.716 928.811 754.363 861.86 823.345C859.024 826.268 859.018 830.935 861.9 833.813V833.813Z" fill="#F7F9FC" fill-opacity="0.2"/>
<path d="M883.185 797.963C885.648 800.418 889.637 800.42 892.063 797.928C952.472 735.888 992.241 656.735 1005.86 571.248C1019.81 483.693 1005.61 393.983 965.288 314.962C924.971 235.941 860.606 171.66 781.406 131.321C702.206 90.982 612.233 76.6534 524.365 90.3863C436.498 104.119 355.243 145.21 292.231 207.775C229.219 270.341 187.681 351.174 173.564 438.702C159.447 526.231 173.474 615.968 213.638 695.066C252.854 772.298 315.023 835.521 391.586 876.154C394.656 877.783 398.452 876.56 400.044 873.471V873.471C401.641 870.369 400.413 866.564 397.332 864.927C323.156 825.509 262.924 764.224 224.918 689.375C185.96 612.65 172.353 525.605 186.047 440.702C199.74 355.8 240.032 277.392 301.153 216.703C362.275 156.015 441.093 116.157 526.324 102.836C611.555 89.5151 698.829 103.414 775.653 142.543C852.477 181.671 914.912 244.024 954.019 320.674C993.126 397.325 1006.9 484.343 993.373 569.272C980.176 652.118 941.657 728.833 883.151 788.987C880.715 791.492 880.711 795.496 883.185 797.963V797.963Z" fill="#F7F9FC" fill-opacity="0.2"/>
<path d="M949.967 723.696C952.86 724.92 956.202 723.565 957.381 720.652C986.933 647.634 993.042 567.168 974.778 490.443C956.074 411.871 912.787 341.326 851.22 289.083C789.654 236.841 713.025 205.63 632.495 199.997C553.858 194.496 475.513 213.666 408.34 254.761C405.66 256.4 404.869 259.919 406.547 262.574V262.574C408.225 265.229 411.737 266.016 414.418 264.378C479.543 224.578 555.482 206.015 631.702 211.346C709.816 216.81 784.146 247.085 843.865 297.76C903.585 348.435 945.574 416.864 963.717 493.079C981.42 567.449 975.516 645.441 946.903 716.227C945.726 719.139 947.075 722.474 949.967 723.696V723.696Z" fill="#F7F9FC" fill-opacity="0.2"/>
<path d="M919.203 763.05C921.893 764.188 925 762.929 926.096 760.22C945.193 713.037 953.859 662.255 951.475 611.364C949.008 558.71 934.773 507.28 909.818 460.857C884.863 414.435 849.823 374.201 807.275 343.116C766.153 313.072 719.028 292.313 669.156 282.245C666.293 281.667 663.531 283.566 662.996 286.439V286.439C662.462 289.31 664.356 292.066 667.217 292.645C715.537 302.422 761.193 322.546 801.041 351.659C842.312 381.811 876.301 420.838 900.507 465.868C924.713 510.898 938.521 560.785 940.914 611.859C943.225 661.172 934.838 710.379 916.355 756.107C915.261 758.814 916.515 761.914 919.203 763.05V763.05Z" fill="#F7F9FC" fill-opacity="0.2"/>
<path d="M878.944 821.792C881.67 824.035 885.703 823.644 887.904 820.883C924.297 775.218 950.936 722.537 966.141 666.101C981.901 607.606 985.015 546.42 975.275 486.626C965.535 426.831 943.165 369.802 909.657 319.34C876.149 268.879 832.273 226.145 780.955 193.989C729.638 161.833 672.058 140.994 612.055 132.862C552.052 124.729 491.006 129.49 432.988 146.827C374.969 164.164 321.312 193.679 275.594 233.402C231.484 271.729 195.743 318.709 170.571 371.406C169.05 374.591 170.458 378.387 173.663 379.861V379.861C176.87 381.336 180.661 379.928 182.185 376.742C206.598 325.697 241.236 280.189 283.972 243.055C328.319 204.524 380.367 175.895 436.644 159.078C492.922 142.261 552.137 137.643 610.34 145.531C668.542 153.42 724.395 173.634 774.173 204.825C823.951 236.016 866.511 277.468 899.013 326.415C931.516 375.363 953.215 430.682 962.663 488.682C972.111 546.683 969.09 606.033 953.803 662.774C939.071 717.456 913.272 768.504 878.03 812.765C875.831 815.526 876.219 819.55 878.944 821.792V821.792Z" fill="#F7F9FC" fill-opacity="0.2"/>
</svg>
