<svg width="515" height="333" viewBox="0 0 515 333" fill="none" xmlns="http://www.w3.org/2000/svg">
<path d="M193.582 115.669C196.532 115.669 199.623 115.669 202.713 115.669C208.754 115.669 214.935 115.669 220.976 115.669C221.538 115.669 222.1 115.669 222.521 115.669C226.174 115.669 229.405 116.933 231.933 119.602C234.041 121.709 236.148 123.957 238.255 126.064C241.346 129.155 244.436 132.246 247.527 135.336C249.634 137.443 251.882 139.691 254.129 141.798C254.691 142.36 255.394 142.922 256.237 143.343C257.501 143.905 258.765 143.765 259.749 142.782C260.592 141.939 261.153 140.815 261.715 139.831C264.385 134.072 266.492 128.172 267.475 121.85C268.037 118.338 268.318 114.685 268.739 111.033C269.161 106.959 268.318 103.025 267.897 99.092C267.616 96.8443 267.335 94.4562 266.913 92.2085C266.211 88.9774 265.087 86.0273 263.963 82.9368C263.12 80.6891 262.277 78.3009 261.153 76.0532C259.327 72.1197 256.939 68.6078 254.551 65.2362C250.336 59.1955 245.139 54.1382 239.379 49.7833C235.867 47.1142 232.214 44.8665 228.14 43.0402C227.017 42.4783 226.033 42.0569 224.909 41.4949C219.15 38.4044 212.828 36.8591 206.506 35.7353C189.508 32.9257 173.493 36.1567 158.603 44.726C153.545 47.6761 148.909 51.1881 144.554 54.9811C141.745 57.3693 139.638 60.3194 137.249 63.129C133.878 67.0625 131.209 71.5578 128.961 76.1937C126.011 82.0939 124.044 88.2751 122.639 94.5967C121.937 97.6873 121.937 100.778 121.656 103.868C120.954 109.769 121.516 115.528 122.499 121.288C123.342 126.205 124.606 130.981 126.573 135.477C127.978 138.848 129.383 142.079 131.209 145.31C133.597 149.665 136.828 153.599 140.059 157.392C145.959 164.275 153.124 169.613 160.85 173.968C165.486 176.637 170.543 178.183 175.601 179.728C183.046 181.976 190.773 182.678 198.499 182.257C202.573 181.976 205.804 183.24 208.614 186.19C212.969 190.826 217.464 195.181 221.959 199.676C223.645 201.502 225.612 203.048 227.017 205.015C227.438 205.436 227.719 205.998 228 206.419C229.124 207.824 229.124 209.791 227.017 211.336C225.752 212.32 224.207 212.741 222.662 213.162C217.604 214.567 212.407 215.551 207.068 216.112C198.92 217.096 190.913 216.955 182.906 216.112C172.932 214.989 163.379 212.6 154.107 208.527C148.066 205.998 142.166 203.188 136.688 199.676C131.49 196.305 126.713 192.652 122.078 188.438C117.863 184.504 113.789 180.29 110.137 175.935C108.17 173.687 106.625 171.159 105.079 168.63C102.129 164.135 99.6006 159.358 97.2124 154.582C95.3862 150.648 93.8409 146.715 92.4361 142.641C91.1718 138.989 90.1884 135.196 89.3455 131.403C88.5026 127.61 87.9407 123.817 87.5193 119.883C86.6764 113.14 86.6764 106.538 87.2383 99.7944C87.8002 92.9109 89.0646 86.1678 90.8908 79.4247C92.7171 73.1031 95.1052 67.0625 97.9149 61.0218C100.584 55.2621 104.096 49.9238 107.608 44.726C109.856 41.3545 112.525 38.4044 115.194 35.4543C121.094 28.7112 127.978 23.092 135.283 18.0347C142.869 12.9774 151.017 9.04392 159.586 5.95334C169.42 2.44132 179.675 0.755546 190.07 0.193624C195.97 -0.227818 201.871 0.0531429 207.771 0.896027C212.688 1.59843 217.464 2.16036 222.24 3.42468C228.421 4.96997 234.322 7.35815 240.081 9.88681C246.824 12.8369 253.287 16.4894 259.046 21.1252C262.418 23.7944 265.508 26.604 268.739 29.2731C272.673 32.5042 275.904 36.5781 279.135 40.5116C283.49 45.7094 287.142 51.4691 290.373 57.5098C292.2 60.8813 293.745 64.5338 295.29 68.0458C296.976 72.1198 298.521 76.1937 299.505 80.4081C300.909 86.0273 302.314 91.6466 302.595 97.5468C302.876 102.042 303.298 106.538 303.157 110.892C302.736 118.619 302.033 126.205 300.067 133.65C298.521 139.972 296.555 146.153 294.026 152.053C292.621 155.425 290.795 158.656 288.969 161.887C287.845 163.713 286.861 165.68 285.878 167.506C284.192 170.456 285.176 172.142 286.721 173.968C287.985 175.373 289.39 176.778 290.935 178.042C293.885 180.852 296.555 183.942 299.505 186.752C304.141 191.107 308.636 195.743 312.991 200.379C316.784 204.312 320.858 207.965 324.651 212.039C325.775 213.303 327.179 214.427 327.882 215.972C328.865 217.939 328.303 219.484 326.337 220.186C325.353 220.608 324.229 220.748 323.105 220.748C319.874 220.748 316.784 220.748 313.553 220.748C305.826 220.748 298.1 220.748 290.373 220.889C286.299 220.889 283.068 219.484 280.259 216.674C274.359 210.774 268.458 204.874 262.558 198.974C257.641 194.197 252.865 189.14 247.948 184.364C243.312 179.728 238.677 175.092 234.041 170.456C230.107 166.663 226.314 162.73 222.521 158.937C218.447 155.003 214.514 150.929 210.58 146.996C205.664 142.079 200.887 137.303 195.97 132.386C192.739 129.155 189.649 125.924 186.418 122.693C185.715 121.99 185.153 121.288 184.732 120.305C184.31 119.181 184.17 118.057 185.153 117.074C186.418 116.09 187.823 115.669 189.368 115.669C190.632 115.809 192.177 116.09 193.582 115.669Z" fill="#0D64EF"/>
<path d="M376.068 100.778C390.538 100.778 405.007 100.778 419.617 100.778C421.022 100.778 422.427 100.778 423.832 100.918C427.203 101.48 428.749 103.306 428.889 106.678C429.029 109.769 428.468 112.719 428.187 115.669C427.906 119.462 427.203 123.255 426.079 126.907C425.517 128.733 425.377 130.419 424.815 132.245C423.27 137.162 421.443 142.079 419.196 146.715C417.651 149.806 416.246 152.896 414.56 155.987C412.734 159.358 410.767 162.449 408.379 165.399C405.85 168.63 403.321 172.002 400.512 174.952C395.314 180.149 389.976 185.347 384.076 189.702C381.547 191.669 378.597 193.214 375.787 194.759C371.432 197.288 366.937 199.676 362.301 201.643C356.963 203.891 351.484 205.576 345.865 206.981C342.072 207.965 338.841 206.7 336.172 203.891C333.503 201.081 330.833 198.131 328.024 195.321C324.231 191.388 320.438 187.454 316.785 183.521C315.802 182.397 314.678 181.414 314.257 180.009C313.554 178.183 314.257 176.637 315.942 175.935C317.207 175.373 318.471 175.373 319.735 175.373C323.388 175.373 327.04 175.233 330.693 174.811C340.246 173.547 349.096 170.456 357.384 165.68C361.739 163.151 365.954 160.482 369.606 156.97C373.821 152.896 378.035 148.682 381.406 143.624C382.109 142.501 382.952 141.236 383.514 139.972C384.357 137.724 383.514 136.179 381.126 135.757C379.44 135.477 377.754 135.477 376.068 135.477C362.863 135.477 349.798 135.477 336.593 135.477C334.767 135.477 332.8 135.477 330.974 135.477C329.71 135.477 328.586 135.336 327.462 135.055C325.214 134.493 323.669 132.667 323.528 130.279C323.528 129.857 323.528 129.295 323.528 128.874C323.528 121.709 323.528 114.545 323.528 107.38C323.528 105.976 323.669 104.571 324.371 103.306C325.074 102.042 326.198 101.34 327.462 100.918C328.867 100.497 330.272 100.497 331.676 100.497C346.567 100.778 361.318 100.778 376.068 100.778Z" fill="#0D64EF"/>
<path d="M393.066 87.9939C391.661 86.7296 390.958 85.1843 390.256 83.4986C388.008 77.5984 384.918 72.1196 381.406 66.7813C378.034 61.724 373.82 57.2287 369.465 53.0143C366.515 50.2046 363.003 47.9569 359.35 45.8497C353.45 42.4782 347.55 39.5281 340.947 37.7019C331.957 35.1732 322.825 34.0493 313.554 35.1732C307.653 35.8756 301.894 36.9995 296.274 39.1067C295.01 39.5281 293.886 39.9495 292.622 40.2305C290.234 40.7924 288.267 40.2305 286.581 38.4043C285.176 36.9995 269.443 19.4394 269.162 18.8775C268.038 16.9107 268.319 14.944 270.005 13.5392C270.847 12.8368 271.69 12.2749 272.674 11.7129C279.979 8.06043 287.565 5.25082 295.572 3.28409C302.034 1.7388 308.637 0.895914 315.38 0.474472C319.594 0.333991 323.809 0.193497 328.023 0.614939C334.907 1.17686 341.79 2.16024 348.533 3.98649C357.945 6.51514 366.796 10.3081 375.225 14.944C384.356 20.0013 392.082 26.6039 399.247 34.0494C405.287 40.2305 410.345 47.1141 414.7 54.7C417.088 58.774 418.914 63.1288 420.881 67.4837C422.567 71.2767 423.971 75.2102 425.095 79.4246C425.517 80.9699 425.798 82.6557 425.938 84.201C426.219 86.8701 424.674 88.9773 422.005 89.3987C420.881 89.6797 394.751 89.3987 393.066 87.9939Z" fill="#FAA626"/>
<path d="M193.581 115.669C193.16 116.09 192.738 115.95 192.176 115.95C191.193 115.95 190.209 115.95 189.086 115.95C187.681 115.95 186.276 116.512 185.012 117.214C185.433 116.231 186.417 116.09 187.259 115.95C189.367 115.528 191.474 115.669 193.581 115.669Z" fill="#68605E"/>
<path d="M197.233 143.765C217.328 143.765 233.618 127.475 233.618 107.38C233.618 87.2858 217.328 70.9958 197.233 70.9958C177.139 70.9958 160.849 87.2858 160.849 107.38C160.849 127.475 177.139 143.765 197.233 143.765Z" fill="#FAA626"/>
<path d="M42.9871 321.192L37.9298 316.696C33.9963 319.225 29.3605 320.63 24.3032 320.63C10.1146 320.63 0 310.094 0 297.029V296.889C0 283.824 10.2551 273.147 24.4436 273.147C38.6322 273.147 48.7468 283.683 48.7468 296.748V296.889C48.7468 301.665 47.2015 306.301 44.6729 310.094L49.4492 314.027L42.9871 321.192ZM30.4843 310.094L23.0388 303.772L29.5009 296.608L37.0869 303.351C37.9298 301.525 38.3512 299.417 38.3512 297.029V296.889C38.3512 289.022 32.5915 282.419 24.4436 282.419C16.2958 282.419 10.6765 288.881 10.6765 296.748V296.889C10.6765 304.756 16.4362 311.358 24.5841 311.358C26.6913 311.358 28.6581 310.937 30.4843 310.094Z" fill="#4F7ABD"/>
<path d="M57.0361 300.12V273.99H67.1507V299.979C67.1507 307.425 70.9437 311.358 76.9844 311.358C83.0251 311.358 86.818 307.565 86.818 300.401V274.131H96.9326V299.979C96.9326 313.887 89.2062 320.63 76.8439 320.63C64.4816 320.63 57.0361 313.606 57.0361 300.12Z" fill="#4F7ABD"/>
<path d="M121.234 273.71H130.505L150.173 319.928H139.637L135.422 309.673H116.036L111.822 319.928H101.566L121.234 273.71ZM131.91 300.682L125.87 285.791L119.829 300.682H131.91Z" fill="#4F7ABD"/>
<path d="M157.34 273.99H166.612L188.105 302.227V273.99H198.079V319.787H189.51L167.314 290.708V319.787H157.34V273.99Z" fill="#4F7ABD"/>
<path d="M219.711 283.262H205.804V273.99H243.734V283.262H229.826V319.787H219.711V283.262Z" fill="#4F7ABD"/>
<path d="M250.758 300.12V273.99H260.872V299.979C260.872 307.425 264.665 311.358 270.706 311.358C276.747 311.358 280.54 307.565 280.54 300.401V274.131H290.654V299.979C290.654 313.887 282.928 320.63 270.566 320.63C258.203 320.63 250.758 313.606 250.758 300.12Z" fill="#4F7ABD"/>
<path d="M301.052 273.99H311.869L323.95 293.377L336.031 273.99H346.848V319.787H336.874V289.865L323.95 309.392H323.669L310.885 290.005V319.787H301.052V273.99Z" fill="#4F7ABD"/>
<path d="M377.05 297.029C377.05 283.824 387.164 273.147 401.072 273.147C409.36 273.147 414.277 275.395 419.054 279.469L412.732 287.196C409.22 284.245 405.989 282.56 400.791 282.56C393.486 282.56 387.586 289.022 387.586 296.889V297.029C387.586 305.458 393.346 311.499 401.493 311.499C405.146 311.499 408.377 310.515 411.046 308.689V302.086H400.932V293.377H420.88V313.325C416.103 317.258 409.641 320.63 401.353 320.63C386.883 320.63 377.05 310.515 377.05 297.029Z" fill="#FAA626"/>
<path d="M430.432 273.99H464.99V282.981H440.406V292.253H462.04V301.244H440.406V310.937H465.271V319.928H430.432V273.99Z" fill="#FAA626"/>
<path d="M474.262 273.99H483.533L505.027 302.227V273.99H515.001V319.787H506.432L484.236 290.708V319.787H474.262V273.99Z" fill="#FAA626"/>
</svg>
