<svg width="373" height="373" viewBox="0 0 373 373" fill="none" xmlns="http://www.w3.org/2000/svg">
<rect width="373" height="373" rx="186.5" fill="#ECF1F6"/>
<g clip-path="url(#clip0_369_61703)">
<path d="M313.91 162.528C315.066 162.528 316.003 163.462 316.003 164.613V186.5C316.003 194.692 315.239 202.702 313.774 210.472C302.441 270.825 249.065 316.436 185.086 315.996C113.297 315.504 55.8443 257.722 56.0033 186.208C56.1612 114.823 114.305 57 186.003 57C221.13 57 253.001 70.8818 276.4 93.431C277.245 94.2449 277.267 95.5864 276.436 96.414L245.352 127.378C244.552 128.175 243.259 128.196 242.439 127.419C227.753 113.493 207.882 104.943 186.003 104.943C140.822 104.943 104.44 140.928 104.133 185.934C103.825 231.235 140.599 268.056 186.003 268.056C222.842 268.056 254 243.813 264.275 210.472H188.095C186.94 210.472 186.003 209.538 186.003 208.387V164.612C186.003 163.461 186.94 162.528 188.095 162.528H313.91V162.528Z" fill="#2196F3"/>
<path d="M313.902 162.53H298.208C299.364 162.53 300.301 163.463 300.301 164.614V186.501C300.301 194.693 299.537 202.703 298.072 210.473C287.26 268.051 238.183 312.21 178.14 315.768C180.437 315.903 182.75 315.982 185.078 315.998C249.058 316.437 302.433 270.826 313.766 210.473C315.231 202.703 315.995 194.693 315.995 186.501V164.614C315.995 163.463 315.058 162.53 313.902 162.53V162.53Z" fill="#1E88E5"/>
<path d="M111.641 152.345L72.1592 123.928C94.3089 84.0205 136.992 57 186.005 57C221.132 57 253.003 70.8818 276.402 93.431C277.247 94.2449 277.269 95.5864 276.438 96.414L245.354 127.378C244.555 128.174 243.263 128.199 242.444 127.423C227.758 113.494 207.886 104.944 186.005 104.944C153.031 104.944 124.609 124.361 111.641 152.345V152.345Z" fill="#F44336"/>
<path d="M100.235 144.142L111.633 152.345C123.47 126.802 148.185 108.406 177.48 105.389C177.701 105.365 177.912 105.336 178.137 105.315C175.559 105.071 172.946 104.944 170.303 104.944C140.517 104.944 114.557 120.586 100.235 144.142V144.142Z" fill="#E53935"/>
<path d="M260.704 93.431C261.549 94.2449 261.571 95.5864 260.74 96.4145L235.51 121.547C237.927 123.378 240.241 125.337 242.437 127.419C243.256 128.197 244.55 128.176 245.35 127.379L276.434 96.4145C277.265 95.5864 277.243 94.2454 276.398 93.431C252.999 70.8818 221.127 57 186.001 57C183.365 57 180.749 57.0875 178.152 57.2418C210.165 59.1413 239.06 72.5734 260.704 93.431V93.431Z" fill="#E53935"/>
<path d="M281.359 274.508C257.618 300.027 223.677 316 185.996 316C135.099 316 91.0356 286.864 69.6963 244.418L110.004 216.902C122.099 246.883 151.568 268.056 185.996 268.056C207.601 268.056 227.25 259.718 241.877 246.096L281.359 274.508Z" fill="#4CAF50"/>
<path d="M110.007 216.903L98.1211 225.016C111.926 250.635 139.073 268.056 170.304 268.056C172.945 268.056 175.556 267.927 178.133 267.684C147.132 264.74 121.17 244.573 110.007 216.903Z" fill="#43A047"/>
<path d="M186 316C223.682 316 257.623 300.028 281.363 274.508L271.693 267.549C249.402 295.184 215.963 313.517 178.173 315.765C180.763 315.918 183.372 316 186 316Z" fill="#43A047"/>
<path d="M104.129 186.5C104.129 197.245 106.216 207.507 110.009 216.903L69.7008 244.418C60.9334 226.991 56 207.319 56 186.5C56 163.805 61.8591 142.475 72.1545 123.928L111.636 152.345C106.818 162.731 104.129 174.306 104.129 186.5V186.5Z" fill="#FFC107"/>
<path d="M98.124 225.016L110.01 216.903C106.217 207.507 104.13 197.245 104.13 186.5C104.13 174.306 106.819 162.731 111.637 152.345L100.239 144.142C92.8377 156.315 88.5421 170.6 88.4375 185.934C88.341 200.075 91.8586 213.39 98.124 225.016V225.016Z" fill="#FFB300"/>
</g>
<defs>
<clipPath id="clip0_369_61703">
<rect width="260" height="259" fill="white" transform="translate(56 57)"/>
</clipPath>
</defs>
</svg>
