<svg width="46" height="76" viewBox="0 0 46 76" fill="none" xmlns="http://www.w3.org/2000/svg">
<circle cx="23" cy="23" r="23" fill="#B9D4FF"/>
<rect x="23" y="20.5731" width="11.9999" height="13.3209" fill="#F6F9F9"/>
<path fill-rule="evenodd" clip-rule="evenodd" d="M23.0001 12.613L35 20.573H23.0001V12.613Z" fill="#F6F9F9"/>
<rect width="11.9999" height="13.3209" transform="matrix(-1 0 0 1 23 20.5732)" fill="white"/>
<path fill-rule="evenodd" clip-rule="evenodd" d="M22.9999 12.613L11 20.573H22.9999V12.613Z" fill="white"/>
<path fill-rule="evenodd" clip-rule="evenodd" d="M22.9313 14.9897H18.5657L17.3486 29.7743H22.9313H28.5139L27.2968 14.9897H22.9313Z" fill="#006499"/>
<path d="M22.1612 9.32781L15.4206 15.1906C15.0089 15.5487 15.2622 16.2258 15.8078 16.2258H29.6635C30.217 16.2258 30.4659 15.5324 30.0387 15.1805L22.9236 9.31765C22.7012 9.13432 22.3788 9.13862 22.1612 9.32781Z" fill="#0D64EF"/>
<path d="M21.6424 23L21.0024 21.888H20.6544V23H20.1984V20.22H21.1584C21.3718 20.22 21.5518 20.2573 21.6984 20.332C21.8478 20.4067 21.9584 20.5067 22.0304 20.632C22.1051 20.7573 22.1424 20.8973 22.1424 21.052C22.1424 21.2333 22.0891 21.3987 21.9824 21.548C21.8784 21.6947 21.7171 21.7947 21.4984 21.848L22.1864 23H21.6424ZM20.6544 21.524H21.1584C21.3291 21.524 21.4571 21.4813 21.5424 21.396C21.6304 21.3107 21.6744 21.196 21.6744 21.052C21.6744 20.908 21.6318 20.796 21.5464 20.716C21.4611 20.6333 21.3318 20.592 21.1584 20.592H20.6544V21.524ZM23.1818 21.12C23.2591 21.0187 23.3644 20.9333 23.4978 20.864C23.6311 20.7947 23.7818 20.76 23.9498 20.76C24.1418 20.76 24.3164 20.808 24.4738 20.904C24.6338 20.9973 24.7591 21.1293 24.8498 21.3C24.9404 21.4707 24.9858 21.6667 24.9858 21.888C24.9858 22.1093 24.9404 22.308 24.8498 22.484C24.7591 22.6573 24.6338 22.7933 24.4738 22.892C24.3164 22.988 24.1418 23.036 23.9498 23.036C23.7818 23.036 23.6324 23.0027 23.5018 22.936C23.3711 22.8667 23.2644 22.7813 23.1818 22.68V24.048H22.7258V20.796H23.1818V21.12ZM24.5218 21.888C24.5218 21.736 24.4898 21.6053 24.4258 21.496C24.3644 21.384 24.2818 21.3 24.1778 21.244C24.0764 21.1853 23.9671 21.156 23.8498 21.156C23.7351 21.156 23.6258 21.1853 23.5218 21.244C23.4204 21.3027 23.3378 21.388 23.2738 21.5C23.2124 21.612 23.1818 21.744 23.1818 21.896C23.1818 22.048 23.2124 22.1813 23.2738 22.296C23.3378 22.408 23.4204 22.4933 23.5218 22.552C23.6258 22.6107 23.7351 22.64 23.8498 22.64C23.9671 22.64 24.0764 22.6107 24.1778 22.552C24.2818 22.4907 24.3644 22.4027 24.4258 22.288C24.4898 22.1733 24.5218 22.04 24.5218 21.888ZM25.6207 23.028C25.5381 23.028 25.4687 23 25.4127 22.944C25.3567 22.888 25.3287 22.8187 25.3287 22.736C25.3287 22.6533 25.3567 22.584 25.4127 22.528C25.4687 22.472 25.5381 22.444 25.6207 22.444C25.7007 22.444 25.7687 22.472 25.8247 22.528C25.8807 22.584 25.9087 22.6533 25.9087 22.736C25.9087 22.8187 25.8807 22.888 25.8247 22.944C25.7687 23 25.7007 23.028 25.6207 23.028Z" fill="#F6F9F9"/>
<path d="M24.6616 29.0092L35 22.3793V35.7002L24.6616 29.0092Z" fill="#FFBC42"/>
<path d="M21.3384 29.0092L11 22.3793V35.7002L21.3384 29.0092Z" fill="#FCCF7D"/>
<path d="M11 35.7003H22.9999V36.9999H12.2996C11.5819 36.9999 11 36.4181 11 35.7003V35.7003Z" fill="#FFBC42"/>
<path fill-rule="evenodd" clip-rule="evenodd" d="M23.0001 27.7404L11 35.7005H23.0001V27.7404Z" fill="#FFBC42"/>
<path d="M35 35.7003H23.0001V36.9999H33.7004C34.4181 36.9999 35 36.4181 35 35.7003V35.7003Z" fill="#F1C16B"/>
<path fill-rule="evenodd" clip-rule="evenodd" d="M22.9999 27.7404L35 35.7005H22.9999V27.7404Z" fill="#F1C16B"/>
</svg>
