<svg width="46" height="76" viewBox="0 0 46 76" fill="none" xmlns="http://www.w3.org/2000/svg">
<circle cx="23" cy="23" r="23" fill="#B9D4FF"/>
<ellipse cx="13.5" cy="31.4967" rx="4.5" ry="4.50339" fill="#006499"/>
<rect x="12.623" y="29.3281" width="1.42029" height="4.67018" rx="0.710145" fill="white"/>
<rect x="15.667" y="30.9961" width="1.33434" height="4.66666" rx="0.667168" transform="rotate(90 15.667 30.9961)" fill="white"/>
<path d="M31 24.3245C31 23.0348 32.0455 21.9894 33.3351 21.9894H36V26.6596H33.3351C32.0455 26.6596 31 25.6141 31 24.3245V24.3245Z" fill="#FEC478"/>
<rect width="16.9581" height="5.15331" rx="1" transform="matrix(0.95907 -0.28317 0.282778 0.959185 13.4795 14.8021)" fill="#006499"/>
<path fill-rule="evenodd" clip-rule="evenodd" d="M34.0003 14.6504C35.1049 14.6504 36.0003 15.5458 36.0003 16.6504V20.6548H33.3365C31.3099 20.6548 29.6671 22.2976 29.6671 24.3242C29.6671 26.3508 31.3099 27.9936 33.3365 27.9936H36.0003V32.3319C36.0003 33.4364 35.1049 34.3319 34.0003 34.3319H22.1003C20.6488 34.3319 19.6667 32.4476 19.6667 30.996C19.6667 28.0483 17.2788 25.6587 14.3333 25.6587C13.4982 25.6587 12.667 25.065 12.667 24.2299V16.6504C12.667 15.5458 13.5624 14.6504 14.667 14.6504H34.0003Z" fill="#0D64EF"/>
</svg>
